<?xml version="1.0" encoding="utf-8" standalone="no"?>
<!DOCTYPE svg PUBLIC "-//W3C//DTD SVG 1.1//EN"
  "http://www.w3.org/Graphics/SVG/1.1/DTD/svg11.dtd">
<svg xmlns:xlink="http://www.w3.org/1999/xlink" width="460.8pt" height="345.6pt" viewBox="0 0 460.8 345.6" xmlns="http://www.w3.org/2000/svg" version="1.1">
 <metadata>
  <rdf:RDF xmlns:dc="http://purl.org/dc/elements/1.1/" xmlns:cc="http://creativecommons.org/ns#" xmlns:rdf="http://www.w3.org/1999/02/22-rdf-syntax-ns#">
   <cc:Work>
    <dc:type rdf:resource="http://purl.org/dc/dcmitype/StillImage"/>
    <dc:date>2024-09-21T07:33:21.493415</dc:date>
    <dc:format>image/svg+xml</dc:format>
    <dc:creator>
     <cc:Agent>
      <dc:title>Matplotlib v3.9.2, https://matplotlib.org/</dc:title>
     </cc:Agent>
    </dc:creator>
   </cc:Work>
  </rdf:RDF>
 </metadata>
 <defs>
  <style type="text/css">*{stroke-linejoin: round; stroke-linecap: butt}</style>
 </defs>
 <g id="figure_1">
  <g id="patch_1">
   <path d="M 0 345.6 
L 460.8 345.6 
L 460.8 0 
L 0 0 
L 0 345.6 
z
" style="fill: none"/>
  </g>
  <g id="axes_1">
   <g id="line2d_1">
    <path d="M 128.295493 92.609317 
L 119.859191 96.118205 
L 112.187781 99.655953 
L 107.495593 102.022064 
L 103.137223 104.389616 
L 99.108264 106.75549 
L 95.403543 109.117267 
L 92.0173 111.47316 
L 88.943339 113.821957 
L 86.175159 116.162963 
L 83.706063 118.495949 
L 81.529248 120.821104 
L 79.637882 123.138993 
L 78.025162 125.450514 
L 76.684365 127.756864 
L 75.608874 130.059509 
L 74.792214 132.360145 
L 74.228058 134.660683 
L 73.910233 136.963215 
L 73.832727 139.269995 
L 73.989671 141.583418 
L 74.37533 143.905999 
L 74.98408 146.240354 
L 75.810383 148.589185 
L 76.848756 150.955255 
L 78.093734 153.341379 
L 79.539832 155.750396 
L 82.073903 159.413079 
L 85.028696 163.143227 
L 88.383935 166.950154 
L 92.117901 170.84275 
L 96.206947 174.82926 
L 102.165856 180.30324 
L 110.328372 187.419595 
L 124.637894 199.46835 
L 137.824453 210.651104 
L 145.349258 217.264816 
L 152.67283 223.993407 
L 157.931935 229.083051 
L 162.908672 234.178953 
L 167.528453 239.248876 
L 171.718146 244.25683 
L 174.237815 247.541835 
L 176.516159 250.769791 
L 178.535519 253.928217 
L 180.280072 257.004481 
L 181.736146 259.985973 
L 182.892495 262.860278 
L 183.740546 265.615363 
L 184.274603 268.239756 
L 184.492007 270.722727 
L 184.393225 273.054447 
L 183.981888 275.226145 
L 183.264761 277.230231 
L 182.251645 279.060399 
L 180.95523 280.711707 
L 179.390882 282.180621 
L 177.576384 283.465027 
L 175.531641 284.564223 
L 173.27835 285.478871 
L 170.839656 286.210929 
L 168.239796 286.763563 
L 165.503745 287.141032 
L 162.656877 287.348568 
L 159.724639 287.392239 
L 156.732259 287.27881 
L 152.184849 286.830235 
L 147.637875 286.07107 
L 143.166598 285.028734 
L 138.840296 283.730847 
L 134.721669 282.20445 
L 130.866592 280.475358 
L 127.324167 278.567661 
L 124.136997 276.503352 
L 122.227865 275.049942 
L 120.502432 273.540915 
L 118.969145 271.980974 
L 117.635528 270.37431 
L 116.508275 268.724606 
L 115.593329 267.035043 
L 114.895967 265.308307 
L 114.420879 263.546601 
L 114.172242 261.751657 
L 114.153785 259.924754 
L 114.36886 258.066728 
L 114.820487 256.177991 
L 115.511414 254.258547 
L 116.444151 252.308002 
L 117.621006 250.325586 
L 119.044115 248.310162 
L 120.715456 246.260244 
L 122.636859 244.174008 
L 124.81001 242.049303 
L 128.545067 238.784657 
L 132.854376 235.418313 
L 137.741241 231.939325 
L 143.207488 228.335466 
L 149.252977 224.593361 
L 158.209413 219.363915 
L 168.173767 213.827059 
L 181.996202 206.416938 
L 227.585046 182.233232 
L 241.888039 174.292328 
L 252.74244 168.03188 
L 263.564991 161.522388 
L 274.207466 154.784169 
L 281.120469 150.179476 
L 287.8254 145.498045 
L 294.265271 140.75384 
L 300.380678 135.963169 
L 306.110555 131.144681 
L 311.393078 126.319303 
L 316.166731 121.510098 
L 320.371507 116.742048 
L 322.242545 114.381712 
L 323.950218 112.041744 
L 325.488036 109.725654 
L 326.849874 107.437004 
L 328.029985 105.179386 
L 329.023073 102.956407 
L 329.824304 100.771671 
L 330.429366 98.628761 
L 330.834497 96.531218 
L 331.036507 94.482524 
L 331.032836 92.486082 
L 330.821545 90.545195 
L 330.401361 88.663051 
L 329.771685 86.842698 
L 328.932598 85.087037 
L 327.884881 83.398792 
L 326.630003 81.780507 
L 325.170114 80.234524 
L 323.508056 78.762972 
L 321.647323 77.36776 
L 319.592051 76.050562 
L 317.347 74.812815 
L 314.917513 73.655708 
L 312.30948 72.580185 
L 309.529319 71.586938 
L 306.583916 70.676411 
L 303.480587 69.848801 
L 300.227035 69.104062 
L 293.301721 67.86184 
L 285.875472 66.944793 
L 278.01885 66.344625 
L 269.803922 66.050076 
L 261.302831 66.047357 
L 252.586453 66.320614 
L 243.723268 66.8524 
L 234.778385 67.624143 
L 225.81279 68.616584 
L 216.882782 69.810178 
L 208.039602 71.185457 
L 199.329234 72.723335 
L 190.792353 74.405366 
L 182.464407 76.213947 
L 174.375798 78.13248 
L 166.552141 80.145478 
L 155.358574 83.311145 
L 144.862215 86.614369 
L 135.099594 90.018244 
L 129.009965 92.327905 
L 129.009965 92.327905 
" clip-path="url(#p0c608b3c2b)" style="fill: none; stroke: #900000; stroke-width: 20; stroke-linecap: square"/>
   </g>
   <g id="line2d_2">
    <path d="M 134.684548 91.019643 
L 125.960928 94.626016 
L 120.588433 97.044213 
L 115.568257 99.467454 
L 110.896931 101.89151 
L 106.569915 104.312967 
L 102.581823 106.729161 
L 98.926615 109.138103 
L 95.597769 111.538416 
L 92.588419 113.929276 
L 89.891482 116.310356 
L 87.499757 118.681772 
L 85.406009 121.04404 
L 83.603035 123.398028 
L 82.08372 125.744925 
L 80.841073 128.086199 
L 79.868256 130.423567 
L 79.158608 132.75897 
L 78.705642 135.094544 
L 78.503059 137.432594 
L 78.54473 139.775578 
L 78.824693 142.126083 
L 79.337122 144.486804 
L 80.076313 146.86053 
L 81.036644 149.250124 
L 82.212548 151.658503 
L 83.598464 154.088624 
L 85.188798 156.543461 
L 87.945127 160.278554 
L 91.128781 164.085854 
L 94.718808 167.974974 
L 98.692624 171.955029 
L 104.54492 177.417569 
L 110.968861 183.073509 
L 119.683767 190.433854 
L 148.46081 214.445347 
L 156.175065 221.254024 
L 161.780368 226.426369 
L 167.147041 231.626837 
L 172.197412 236.825042 
L 176.853823 241.986355 
L 181.040778 247.07242 
L 183.535981 250.401007 
L 185.77151 253.665041 
L 187.729755 256.851496 
L 189.395189 259.947282 
L 190.754685 262.939417 
L 191.797788 265.815225 
L 192.516963 268.562521 
L 192.907784 271.169805 
L 192.969067 273.62644 
L 192.702939 275.922818 
L 192.114841 278.050503 
L 191.213455 280.002356 
L 190.010584 281.772623 
L 188.520946 283.357002 
L 186.761929 284.752669 
L 184.753296 285.95828 
L 182.516848 286.973936 
L 180.07607 287.801123 
L 177.455757 288.442626 
L 174.681637 288.902421 
L 171.780011 289.185548 
L 168.777394 289.297978 
L 165.700198 289.246464 
L 162.574433 289.038394 
L 157.849937 288.450078 
L 153.154651 287.55521 
L 148.564521 286.382423 
L 144.148922 284.960196 
L 139.970187 283.316097 
L 136.083491 281.476176 
L 132.537014 279.464505 
L 130.38249 278.038822 
L 128.408562 276.552359 
L 126.624897 275.010432 
L 125.040127 273.417827 
L 123.66194 271.778804 
L 122.49717 270.097096 
L 121.551888 268.375916 
L 120.831487 266.617967 
L 120.340765 264.825453 
L 120.084006 263.000095 
L 120.065046 261.143147 
L 120.287344 259.255407 
L 120.754038 257.337242 
L 121.467997 255.388592 
L 122.431866 253.408998 
L 123.648098 251.397607 
L 125.118988 249.353195 
L 126.846685 247.274174 
L 128.833209 245.15861 
L 131.080448 243.004235 
L 134.943932 239.694155 
L 139.403139 236.280827 
L 144.46224 232.75277 
L 150.123986 229.097161 
L 156.389193 225.299969 
L 165.677925 219.990632 
L 176.021503 214.364794 
L 190.386659 206.827502 
L 237.903295 182.157566 
L 252.854853 174.033311 
L 264.215432 167.620645 
L 275.55471 160.946193 
L 286.717047 154.030614 
L 293.973973 149.301203 
L 301.017171 144.490337 
L 307.78629 139.612532 
L 314.218307 134.684792 
L 320.248321 129.726611 
L 325.810534 124.759908 
L 330.839391 119.808881 
L 335.27088 114.899772 
L 337.243374 112.469618 
L 339.04395 110.060541 
L 340.665675 107.676238 
L 342.102007 105.320453 
L 343.346811 102.996969 
L 344.394429 100.709581 
L 345.239707 98.462079 
L 345.878043 96.258231 
L 346.305433 94.101761 
L 346.518486 91.996326 
L 346.514486 89.945499 
L 346.291389 87.952745 
L 345.847866 86.021402 
L 345.183313 84.154664 
L 344.297856 82.355557 
L 343.192375 80.626927 
L 341.868488 78.971417 
L 340.328545 77.39146 
L 338.575634 75.889259 
L 336.613548 74.466779 
L 334.446758 73.125736 
L 332.080407 71.867591 
L 329.520258 70.693544 
L 326.772656 69.604531 
L 323.844502 68.601221 
L 320.743196 67.684019 
L 317.476587 66.853069 
L 314.052933 66.108259 
L 306.769227 64.875369 
L 298.96421 63.979623 
L 290.713105 63.411791 
L 282.092548 63.159564 
L 273.17905 63.20802 
L 264.047573 63.540132 
L 254.770332 64.137272 
L 245.415778 64.979706 
L 236.047817 66.047062 
L 226.725244 67.318747 
L 217.50137 68.77433 
L 208.423851 70.39385 
L 199.534657 72.158084 
L 190.870189 74.048752 
L 182.461498 76.048675 
L 174.334583 78.141876 
L 166.510747 80.313654 
L 155.379392 83.689702 
L 145.008742 87.172972 
L 135.423684 90.730109 
L 135.423684 90.730109 
" clip-path="url(#p0c608b3c2b)" style="fill: none; stroke: #b80000; stroke-width: 21; stroke-linecap: square"/>
   </g>
   <g id="line2d_3">
    <path d="M 141.296032 89.372796 
L 135.185855 91.842383 
L 129.446222 94.322268 
L 124.075099 96.80689 
L 119.06899 99.291642 
L 114.423214 101.772797 
L 110.132147 104.247423 
L 106.189443 106.713316 
L 102.588216 109.168925 
L 99.321197 111.613287 
L 96.380875 114.04597 
L 93.759607 116.467015 
L 91.449708 118.876885 
L 89.443532 121.27642 
L 87.733526 123.666797 
L 86.312279 126.04949 
L 85.172553 128.426239 
L 84.307305 130.799016 
L 83.7097 133.170003 
L 83.373111 135.541561 
L 83.291118 137.916213 
L 83.457491 140.296617 
L 83.866179 142.685554 
L 84.511276 145.085902 
L 85.387001 147.500623 
L 86.487653 149.932742 
L 87.807576 152.385332 
L 89.341116 154.861493 
L 91.082565 157.364334 
L 94.071808 161.175383 
L 97.495356 165.063699 
L 101.331518 169.039193 
L 105.556764 173.111198 
L 111.750429 178.705195 
L 118.519358 184.502644 
L 129.568284 193.604694 
L 151.513934 211.550298 
L 159.593029 218.425404 
L 167.467622 225.429166 
L 173.129453 230.732468 
L 178.492708 236.046392 
L 183.47599 241.336601 
L 187.999248 246.564644 
L 190.721302 249.994911 
L 193.183789 253.365942 
L 195.367254 256.664345 
L 197.254241 259.876566 
L 198.829644 262.989067 
L 200.081018 265.988532 
L 200.998859 268.862058 
L 201.576832 271.597363 
L 201.811952 274.182978 
L 201.704682 276.608424 
L 201.258978 278.864385 
L 200.482246 280.942837 
L 199.385245 282.837164 
L 197.9819 284.542241 
L 196.289076 286.054473 
L 194.326277 287.371815 
L 192.115315 288.493748 
L 189.679938 289.421229 
L 187.045445 290.156609 
L 184.238291 290.703529 
L 181.285689 291.066799 
L 178.215236 291.252253 
L 175.054556 291.266606 
L 171.830975 291.117291 
L 166.935937 290.604067 
L 162.045844 289.7693 
L 157.241519 288.642616 
L 152.597076 287.253689 
L 148.17933 285.631421 
L 144.047593 283.803262 
L 140.253777 281.794699 
L 136.842753 279.628883 
L 134.800592 278.107909 
L 132.955621 276.531665 
L 131.316664 274.905029 
L 129.891576 273.232329 
L 128.687334 271.517347 
L 127.710141 269.763329 
L 126.965507 267.972993 
L 126.458344 266.148545 
L 126.193045 264.291691 
L 126.173556 262.403657 
L 126.403452 260.485204 
L 126.885993 258.536643 
L 127.624181 256.557855 
L 128.6208 254.548305 
L 129.878464 252.507058 
L 131.399636 250.432792 
L 133.186654 248.323816 
L 135.241742 246.178081 
L 137.567008 243.993193 
L 141.565807 240.636398 
L 146.183044 237.174766 
L 151.423846 233.59625 
L 157.29199 229.887398 
L 163.789361 226.033484 
L 173.429597 220.641779 
L 184.174878 214.924031 
L 199.11593 207.255057 
L 248.687315 182.078417 
L 264.333185 173.761987 
L 276.236658 167.189408 
L 288.131041 160.341326 
L 295.975741 155.632802 
L 303.690045 150.819838 
L 311.215574 145.913718 
L 318.490067 140.928244 
L 325.447941 135.879834 
L 332.021049 130.787568 
L 338.139629 125.673153 
L 343.733442 120.560821 
L 348.733106 115.477123 
L 350.989044 112.954872 
L 353.071563 110.450633 
L 354.972914 107.968228 
L 356.685677 105.511552 
L 358.202853 103.084555 
L 359.517876 100.69122 
L 360.624692 98.335547 
L 361.517791 96.021531 
L 362.192257 93.75314 
L 362.643816 91.534295 
L 362.868857 89.368844 
L 362.864496 87.260543 
L 362.628574 85.213033 
L 362.1597 83.229817 
L 361.45727 81.31424 
L 360.521461 79.469469 
L 359.353265 77.698475 
L 357.954468 76.004012 
L 356.327643 74.388607 
L 354.476157 72.854539 
L 352.40413 71.403834 
L 350.116411 70.03825 
L 347.618568 68.759273 
L 344.916827 67.568107 
L 342.018037 66.465679 
L 338.929636 65.452628 
L 335.659591 64.529314 
L 332.21634 63.695822 
L 328.608752 62.951962 
L 324.84606 62.297282 
L 316.893783 61.252395 
L 308.438511 60.552682 
L 299.561431 60.186213 
L 290.344183 60.13811 
L 280.867262 60.39107 
L 271.208626 60.925917 
L 261.442528 61.722137 
L 251.638579 62.758395 
L 241.861069 64.012995 
L 232.16849 65.464308 
L 222.613293 67.091124 
L 213.241816 68.87295 
L 204.094361 70.790247 
L 195.205417 72.824613 
L 186.603954 74.958905 
L 178.313798 77.177323 
L 170.354059 79.465448 
L 162.739567 81.810253 
L 151.988304 85.408593 
L 142.061161 89.074733 
L 142.061161 89.074733 
" clip-path="url(#p0c608b3c2b)" style="fill: none; stroke: #df0000; stroke-width: 22; stroke-linecap: square"/>
   </g>
   <g id="line2d_4">
    <path d="M 148.142031 87.66567 
L 141.815016 90.207563 
L 135.875138 92.756733 
L 130.319646 95.307665 
L 125.144325 97.85583 
L 120.343781 100.397596 
L 115.911702 102.930144 
L 111.841074 105.451398 
L 108.124374 107.959943 
L 104.753734 110.454961 
L 101.721077 112.936167 
L 99.018232 115.403753 
L 96.637025 117.858336 
L 94.56936 120.300909 
L 92.807271 122.732802 
L 91.342969 125.155642 
L 90.168874 127.571318 
L 89.277636 129.981952 
L 88.662142 132.389873 
L 88.315519 134.797589 
L 88.231127 137.207765 
L 88.402545 139.623206 
L 88.823552 142.046832 
L 89.488094 144.481665 
L 90.390259 146.930804 
L 91.524238 149.397417 
L 92.884276 151.884715 
L 94.464633 154.395938 
L 96.259524 156.934332 
L 99.341198 160.799941 
L 102.871694 164.744705 
L 106.829082 168.779002 
L 111.189552 172.912619 
L 117.584667 178.593904 
L 124.578156 184.485421 
L 136.003523 193.743181 
L 158.733314 212.025258 
L 167.113311 219.039114 
L 175.287525 226.189207 
L 181.168648 231.606292 
L 186.74261 237.036449 
L 191.924262 242.444205 
L 196.629734 247.789774 
L 199.462426 251.297643 
L 202.025631 254.745122 
L 204.298897 258.118324 
L 206.26386 261.403187 
L 207.904611 264.585671 
L 209.20804 267.651963 
L 210.164118 270.588686 
L 210.766156 273.383116 
L 211.010981 276.02338 
L 210.899056 278.498647 
L 210.434513 280.799303 
L 209.625116 282.917092 
L 208.482152 284.845233 
L 207.020236 286.578501 
L 205.257062 288.113279 
L 203.213088 289.447562 
L 200.911182 290.580939 
L 198.37623 291.514532 
L 195.634721 292.250914 
L 192.714331 292.793992 
L 189.643508 293.148881 
L 186.451071 293.321749 
L 183.165837 293.319664 
L 179.816282 293.150431 
L 176.43024 292.822425 
L 171.34137 292.052023 
L 166.31673 290.97484 
L 161.435501 289.621779 
L 156.769315 288.023121 
L 152.38194 286.207785 
L 148.329326 284.202752 
L 144.659929 282.03264 
L 142.447318 280.505155 
L 140.4343 278.919947 
L 138.630433 277.28227 
L 137.044226 275.596808 
L 135.683241 273.867675 
L 134.554197 272.098426 
L 133.663065 270.292063 
L 133.015164 268.451053 
L 132.615252 266.577342 
L 132.467603 264.672371 
L 132.576087 262.737094 
L 132.944241 260.771996 
L 133.575321 258.77711 
L 134.472364 256.752035 
L 135.638225 254.695948 
L 137.075615 252.607627 
L 138.787127 250.485456 
L 140.775255 248.327449 
L 143.042396 246.131254 
L 145.590854 243.894172 
L 149.945773 240.455153 
L 154.945362 236.905623 
L 160.595433 233.232432 
L 166.900357 229.421 
L 173.86245 225.455453 
L 184.166003 219.898815 
L 195.62378 213.995256 
L 211.520478 206.060761 
L 255.948777 184.040523 
L 272.225162 175.657692 
L 284.676291 169.016609 
L 297.184258 162.080465 
L 309.585299 154.866992 
L 317.701086 149.91773 
L 325.624194 144.869486 
L 333.288565 139.736603 
L 340.624464 134.536208 
L 347.559289 129.288265 
L 354.01858 124.015548 
L 359.927261 118.743529 
L 365.211068 113.500164 
L 367.596053 110.898567 
L 369.798157 108.315578 
L 371.80907 105.755232 
L 373.620837 103.221639 
L 375.225948 100.718969 
L 376.617363 98.251428 
L 377.788593 95.823238 
L 378.733733 93.438616 
L 379.44752 91.101749 
L 379.925384 88.816771 
L 380.163471 86.587738 
L 380.158712 84.418606 
L 379.908824 82.313205 
L 379.41235 80.275216 
L 378.668687 78.30815 
L 377.678075 76.415325 
L 376.441631 74.599846 
L 374.961331 72.864584 
L 373.24 71.212167 
L 371.281314 69.644956 
L 369.089761 68.165038 
L 366.670613 66.774215 
L 364.029908 65.473993 
L 361.174392 64.265582 
L 358.111471 63.149891 
L 354.84918 62.127525 
L 351.396111 61.198792 
L 347.761359 60.363704 
L 343.954462 59.621986 
L 339.985346 58.973084 
L 331.601673 57.950186 
L 322.694955 57.285463 
L 313.351921 56.965768 
L 303.65953 56.974898 
L 293.70327 57.294164 
L 283.565672 57.902992 
L 273.325091 58.779487 
L 263.054721 59.900989 
L 252.82191 61.244558 
L 242.687693 62.787415 
L 232.706562 64.50731 
L 222.926436 66.38283 
L 213.388776 68.393633 
L 204.128851 70.520631 
L 195.176086 72.746108 
L 186.554486 75.053796 
L 178.2831 77.428903 
L 170.376511 79.858117 
L 162.845325 82.329572 
L 155.696655 84.832795 
L 148.93458 87.358645 
L 148.93458 87.358645 
" clip-path="url(#p0c608b3c2b)" style="fill: none; stroke: #ff0a00; stroke-width: 23; stroke-linecap: square"/>
   </g>
   <g id="line2d_5">
    <path d="M 155.235523 85.894931 
L 148.679664 88.512821 
L 142.528636 91.134711 
L 136.778891 93.755148 
L 131.425421 96.369692 
L 126.462051 98.974824 
L 121.881713 101.567857 
L 117.676667 104.146854 
L 113.838701 106.710552 
L 110.359293 109.258289 
L 107.229759 111.789944 
L 104.441359 114.305872 
L 101.985394 116.806854 
L 99.853285 119.294048 
L 98.036624 121.768948 
L 96.52722 124.233341 
L 95.31713 126.689277 
L 94.398675 129.139038 
L 93.764451 131.585106 
L 93.407323 134.030145 
L 93.320422 136.476973 
L 93.497123 138.928544 
L 93.931029 141.387929 
L 94.615933 143.858297 
L 95.545791 146.342896 
L 96.714678 148.845039 
L 98.116741 151.368086 
L 99.746154 153.915421 
L 101.597055 156.490439 
L 104.775637 160.412259 
L 108.418314 164.415205 
L 112.502925 168.510142 
L 117.005389 172.707341 
L 123.612202 178.47879 
L 130.841898 184.467593 
L 140.623684 192.279628 
L 168.405043 214.291783 
L 177.069616 221.491073 
L 183.411387 226.979579 
L 189.525039 232.515487 
L 195.322606 238.06712 
L 200.714933 243.597804 
L 204.041115 247.253108 
L 207.122803 250.867696 
L 209.935953 254.427775 
L 212.458101 257.919095 
L 214.668758 261.327126 
L 216.549821 264.637252 
L 218.085948 267.834989 
L 219.264889 270.906197 
L 220.077781 273.837312 
L 220.519381 276.615558 
L 220.58822 279.229159 
L 220.286688 281.667528 
L 219.621032 283.921434 
L 218.601272 285.983133 
L 217.241042 287.846482 
L 215.557353 289.506991 
L 213.570282 290.961865 
L 211.302624 292.209985 
L 208.779485 293.251867 
L 206.027854 294.089581 
L 203.076162 294.726647 
L 199.953838 295.167902 
L 196.690879 295.41935 
L 193.317438 295.488 
L 189.863453 295.381696 
L 186.358305 295.108946 
L 182.830533 294.678749 
L 177.556135 293.758706 
L 172.379297 292.537537 
L 167.379491 291.047203 
L 162.628061 289.31866 
L 158.188065 287.381157 
L 154.11446 285.261705 
L 151.62593 283.75982 
L 149.333661 282.194506 
L 147.248614 280.571714 
L 145.380564 278.896804 
L 143.738205 277.17454 
L 142.329262 275.409099 
L 141.160595 273.604075 
L 140.238306 271.762495 
L 139.567835 269.886829 
L 139.154057 267.979012 
L 139.001366 266.040461 
L 139.113758 264.072088 
L 139.494897 262.074327 
L 140.148187 260.047144 
L 141.076819 257.990062 
L 142.283821 255.902169 
L 143.772097 253.782142 
L 145.544449 251.628256 
L 147.603602 249.4384 
L 149.952208 247.210089 
L 152.592845 244.940477 
L 155.528006 242.626371 
L 160.488147 239.063967 
L 166.12364 235.380147 
L 172.440658 231.560088 
L 179.443617 227.587553 
L 187.134393 223.445037 
L 198.455178 217.625067 
L 214.29176 209.8084 
L 276.03768 179.779494 
L 288.976522 173.178761 
L 302.090951 166.260833 
L 315.226766 159.036621 
L 323.907456 154.060483 
L 332.457242 148.966949 
L 340.81062 143.768088 
L 348.897395 138.478813 
L 356.643296 133.11701 
L 363.970832 127.703594 
L 370.800383 122.262488 
L 377.051539 116.820509 
L 379.935253 114.10831 
L 382.644648 111.407141 
L 385.170184 108.721047 
L 387.502574 106.054195 
L 389.632889 103.410849 
L 391.552579 100.795356 
L 393.253572 98.212126 
L 394.7283 95.665607 
L 395.969791 93.160266 
L 396.971704 90.700559 
L 397.72839 88.290914 
L 398.234953 85.935696 
L 398.487273 83.63919 
L 398.482075 81.405567 
L 398.21694 79.238864 
L 397.690345 77.142956 
L 396.901686 75.121532 
L 395.851279 73.178072 
L 394.540384 71.315827 
L 392.971192 69.537796 
L 391.14681 67.84671 
L 389.071264 66.245018 
L 386.749455 64.734869 
L 384.187126 63.31811 
L 381.390842 61.996267 
L 378.367927 60.77055 
L 375.126411 59.641845 
L 371.674991 58.610714 
L 368.022957 57.677404 
L 364.180128 56.841844 
L 360.156788 56.103662 
L 355.963626 55.462187 
L 351.611655 54.916468 
L 342.476554 54.107165 
L 332.843562 53.663062 
L 322.805704 53.568 
L 312.455049 53.802962 
L 301.880976 54.346716 
L 291.168762 55.176438 
L 280.398411 56.268319 
L 269.643816 57.59811 
L 258.972175 59.141617 
L 248.443666 60.875115 
L 238.111366 62.7757 
L 228.02133 64.821559 
L 218.212842 66.992181 
L 208.718783 69.268499 
L 199.566069 71.632977 
L 190.776152 74.06966 
L 182.365552 76.564168 
L 174.346391 79.103675 
L 166.726919 81.676853 
L 159.512026 84.273807 
L 156.057024 85.578478 
L 156.057024 85.578478 
" clip-path="url(#p0c608b3c2b)" style="fill: none; stroke: #ff3200; stroke-width: 24; stroke-linecap: square"/>
   </g>
  </g>
 </g>
 <defs>
  <clipPath id="p0c608b3c2b">
   <rect x="57.6" y="41.472" width="357.12" height="266.112"/>
  </clipPath>
 </defs>
</svg>
