<?xml version="1.0" encoding="utf-8" standalone="no"?>
<!DOCTYPE svg PUBLIC "-//W3C//DTD SVG 1.1//EN"
  "http://www.w3.org/Graphics/SVG/1.1/DTD/svg11.dtd">
<svg xmlns:xlink="http://www.w3.org/1999/xlink" width="460.8pt" height="345.6pt" viewBox="0 0 460.8 345.6" xmlns="http://www.w3.org/2000/svg" version="1.1">
 <metadata>
  <rdf:RDF xmlns:dc="http://purl.org/dc/elements/1.1/" xmlns:cc="http://creativecommons.org/ns#" xmlns:rdf="http://www.w3.org/1999/02/22-rdf-syntax-ns#">
   <cc:Work>
    <dc:type rdf:resource="http://purl.org/dc/dcmitype/StillImage"/>
    <dc:date>2024-09-17T21:40:50.454267</dc:date>
    <dc:format>image/svg+xml</dc:format>
    <dc:creator>
     <cc:Agent>
      <dc:title>Matplotlib v3.9.2, https://matplotlib.org/</dc:title>
     </cc:Agent>
    </dc:creator>
   </cc:Work>
  </rdf:RDF>
 </metadata>
 <defs>
  <style type="text/css">*{stroke-linejoin: round; stroke-linecap: butt}</style>
 </defs>
 <g id="figure_1">
  <g id="patch_1">
   <path d="M 0 345.6 
L 460.8 345.6 
L 460.8 0 
L 0 0 
L 0 345.6 
z
" style="fill: none"/>
  </g>
  <g id="axes_1">
   <g id="line2d_1">
    <path d="M 187.88062 92.609317 
L 182.752128 96.118205 
L 178.088619 99.655953 
L 173.886247 103.205872 
L 170.13748 106.75549 
L 166.832119 110.296038 
L 163.958144 113.821957 
L 161.502386 117.330456 
L 159.451061 120.821104 
L 158.301285 123.138993 
L 157.3209 125.450514 
L 156.505819 127.756864 
L 155.85202 130.059509 
L 155.355566 132.360145 
L 155.012611 134.660683 
L 154.777809 138.115928 
L 154.867694 141.583418 
L 155.27043 145.071538 
L 155.974519 148.589185 
L 156.968678 152.145633 
L 158.24168 155.750396 
L 159.782161 159.413079 
L 161.578402 163.143227 
L 163.618078 166.950154 
L 166.693337 172.160768 
L 170.143082 177.542784 
L 174.920813 184.535395 
L 182.309055 194.854369 
L 194.823029 212.291311 
L 200.49535 220.617823 
L 204.847988 227.384334 
L 208.922238 234.178953 
L 211.730638 239.248876 
L 214.277584 244.25683 
L 216.520854 249.163718 
L 218.421917 253.928217 
L 219.947409 258.507856 
L 221.070557 262.860278 
L 221.586093 265.615363 
L 221.910751 268.239756 
L 222.042912 270.722727 
L 221.982862 273.054447 
L 221.732807 275.226145 
L 221.29686 277.230231 
L 220.680979 279.060399 
L 219.892878 280.711707 
L 218.941899 282.180621 
L 217.838852 283.465027 
L 216.595837 284.564223 
L 215.226044 285.478871 
L 213.743544 286.210929 
L 212.163069 286.763563 
L 210.499802 287.141032 
L 208.769169 287.348568 
L 206.98664 287.392239 
L 205.167549 287.27881 
L 202.403143 286.830235 
L 199.639003 286.07107 
L 196.920879 285.028734 
L 194.290887 283.730847 
L 191.787142 282.20445 
L 189.443611 280.475358 
L 187.290144 278.567661 
L 185.352639 276.503352 
L 183.653317 274.302075 
L 182.211061 271.980974 
L 181.041796 269.554628 
L 180.158877 267.035043 
L 179.573485 264.431706 
L 179.294987 261.751657 
L 179.331276 258.999596 
L 179.689061 256.177991 
L 180.374124 253.287201 
L 181.391518 250.325586 
L 182.745713 247.289622 
L 184.440693 244.174008 
L 186.47999 240.971769 
L 188.866656 237.674355 
L 191.603168 234.271745 
L 194.691263 230.752551 
L 199.356743 225.856958 
L 204.646379 220.698657 
L 210.552005 215.242123 
L 218.773702 207.945533 
L 252.563696 178.321558 
L 261.331432 170.147107 
L 267.926416 163.71883 
L 274.443297 157.054004 
L 280.784096 150.179476 
L 284.860075 145.498045 
L 288.774922 140.75384 
L 292.492525 135.963169 
L 295.975761 131.144681 
L 299.187048 126.319303 
L 302.088988 121.510098 
L 304.645103 116.742048 
L 306.82063 112.041744 
L 308.583352 107.437004 
L 309.904457 102.956407 
L 310.759353 98.628761 
L 311.005635 96.531218 
L 311.128439 94.482524 
L 311.126207 92.486082 
L 310.997762 90.545195 
L 310.742328 88.663051 
L 310.359544 86.842698 
L 309.849456 85.087037 
L 309.212541 83.398792 
L 308.449691 81.780507 
L 307.562214 80.234524 
L 306.551836 78.762972 
L 305.420682 77.36776 
L 304.171266 76.050562 
L 302.806482 74.812815 
L 301.329578 73.655708 
L 299.744135 72.580185 
L 298.054054 71.586938 
L 296.263521 70.676411 
L 294.376983 69.848801 
L 290.334833 68.441912 
L 285.967352 67.363114 
L 281.316624 66.605738 
L 276.426116 66.159956 
L 271.339767 66.013186 
L 266.101141 66.150547 
L 260.752678 66.55533 
L 255.335047 67.20947 
L 249.886625 68.093996 
L 244.443098 69.189459 
L 239.037174 70.476312 
L 233.698413 71.935242 
L 228.453156 73.547453 
L 223.324528 75.2949 
L 218.332529 77.160465 
L 211.13713 80.145478 
L 204.332475 83.311145 
L 197.951658 86.614369 
L 192.016886 90.018244 
L 188.314953 92.327905 
L 188.314953 92.327905 
" clip-path="url(#paf7fc9064e)" style="fill: none; stroke: #4c0000; stroke-width: 3; stroke-linecap: square"/>
   </g>
   <g id="line2d_2">
    <path d="M 191.764576 91.019643 
L 186.461421 94.626016 
L 181.64288 98.255488 
L 177.303901 101.89151 
L 173.435746 105.521862 
L 170.027054 109.138103 
L 167.064708 112.735059 
L 164.534527 116.310356 
L 163.080579 118.681772 
L 161.807774 121.04404 
L 160.711732 123.398028 
L 159.788128 125.744925 
L 159.032714 128.086199 
L 158.441331 130.423567 
L 158.00993 132.75897 
L 157.734569 135.094544 
L 157.611417 137.432594 
L 157.703961 140.949724 
L 158.11845 144.486804 
L 158.843115 148.053162 
L 159.866444 151.658503 
L 161.177022 155.312767 
L 162.763321 159.025985 
L 164.613473 162.808129 
L 166.715003 166.668934 
L 169.884809 171.955029 
L 173.442464 177.417569 
L 178.37288 184.519293 
L 186.004646 195.009487 
L 197.761128 211.09255 
L 203.668775 219.540761 
L 208.236333 226.426369 
L 212.545869 233.36145 
L 215.541407 238.551402 
L 218.28194 243.69206 
L 220.72233 248.743977 
L 222.820732 253.665041 
L 224.540165 258.411539 
L 225.850042 262.939417 
L 226.484153 265.815225 
L 226.921345 268.562521 
L 227.158928 271.169805 
L 227.196182 273.62644 
L 227.034401 275.922818 
L 226.676891 278.050503 
L 226.128933 280.002356 
L 225.397698 281.772623 
L 224.492135 283.357002 
L 223.422815 284.752669 
L 222.201752 285.95828 
L 220.842198 286.973936 
L 219.358431 287.801123 
L 217.765522 288.442626 
L 216.079113 288.902421 
L 214.315192 289.185548 
L 212.489879 289.297978 
L 210.619228 289.246464 
L 208.719051 289.038394 
L 205.846993 288.450078 
L 202.992693 287.55521 
L 200.202318 286.382423 
L 197.518042 284.960196 
L 194.977756 283.316097 
L 192.615004 281.476176 
L 190.459073 279.464505 
L 188.535233 277.302844 
L 186.865052 275.010432 
L 185.466784 272.603872 
L 184.355775 270.097096 
L 183.544884 267.501389 
L 183.04488 264.825453 
L 182.864825 262.075509 
L 183.012405 259.255407 
L 183.49423 256.366747 
L 184.316076 253.408998 
L 185.483081 250.379619 
L 186.999879 247.274174 
L 188.870679 244.086428 
L 191.099284 240.808461 
L 193.689038 237.430755 
L 196.642711 233.942302 
L 199.962291 230.330713 
L 204.958996 225.299969 
L 210.605688 219.990632 
L 216.893628 214.364794 
L 227.484495 205.246583 
L 252.278033 184.111626 
L 261.31075 176.110468 
L 270.507395 167.620645 
L 277.400629 160.946193 
L 284.186299 154.030614 
L 290.757138 146.905103 
L 294.960141 142.058798 
L 298.97755 137.153744 
L 302.770413 132.208192 
L 306.298924 127.242863 
L 309.523062 122.28084 
L 312.403343 117.347376 
L 314.901641 112.469618 
L 316.982084 107.676238 
L 318.611967 102.996969 
L 319.762673 98.462079 
L 320.150722 96.258231 
L 320.410536 94.101761 
L 320.540053 91.996326 
L 320.537621 89.945499 
L 320.401999 87.952745 
L 320.132378 86.021402 
L 319.728391 84.154664 
L 319.190115 82.355557 
L 318.518084 80.626927 
L 317.713283 78.971417 
L 316.77714 77.39146 
L 315.711532 75.889259 
L 314.518765 74.466779 
L 313.201556 73.125736 
L 311.763034 71.867591 
L 310.2067 70.693544 
L 308.536411 69.604531 
L 306.756364 68.601221 
L 304.871056 67.684019 
L 302.885259 66.853069 
L 300.803993 66.108259 
L 296.376173 64.875369 
L 291.631443 63.979623 
L 286.615533 63.411791 
L 281.375031 63.159564 
L 275.956447 63.20802 
L 270.405352 63.540132 
L 264.765646 64.137272 
L 259.07894 64.979706 
L 253.384085 66.047062 
L 247.716821 67.318747 
L 242.109558 68.77433 
L 236.591264 70.39385 
L 231.187455 72.158084 
L 225.920258 74.048752 
L 220.808551 76.048675 
L 213.466317 79.218811 
L 206.550379 82.550611 
L 200.089696 86.002155 
L 194.10254 89.537997 
L 192.213902 90.730109 
L 192.213902 90.730109 
" clip-path="url(#paf7fc9064e)" style="fill: none; stroke: #9e0000; stroke-width: 3.4; stroke-linecap: square"/>
   </g>
   <g id="line2d_3">
    <path d="M 195.783748 89.372796 
L 190.296638 93.081409 
L 185.31501 96.80689 
L 180.832478 100.53287 
L 176.838983 104.247423 
L 173.3219 107.942479 
L 170.266923 111.613287 
L 168.479479 114.04597 
L 166.88599 116.467015 
L 165.481785 118.876885 
L 164.262215 121.27642 
L 163.222689 123.666797 
L 162.358702 126.04949 
L 161.665854 128.426239 
L 161.139863 130.799016 
L 160.776575 133.170003 
L 160.571959 135.541561 
L 160.522115 137.916213 
L 160.623255 140.296617 
L 161.050035 143.884118 
L 161.796218 147.500623 
L 162.850061 151.156285 
L 164.199956 154.861493 
L 165.83421 158.626728 
L 167.74081 162.462404 
L 169.907135 166.378702 
L 173.176044 171.742595 
L 176.846895 177.288209 
L 181.937633 184.502644 
L 189.825475 195.170044 
L 201.995289 211.550298 
L 208.119278 220.166265 
L 212.858068 227.193818 
L 217.33233 234.275934 
L 220.444178 239.578128 
L 223.292415 244.831393 
L 225.829749 249.994911 
L 228.012283 255.025068 
L 229.801173 259.876566 
L 230.758872 262.989067 
L 231.519592 265.988532 
L 232.077554 268.862058 
L 232.428909 271.597363 
L 232.57184 274.182978 
L 232.50663 276.608424 
L 232.235683 278.864385 
L 231.763502 280.942837 
L 231.096626 282.837164 
L 230.243522 284.542241 
L 229.214441 286.054473 
L 228.021241 287.371815 
L 226.67718 288.493748 
L 225.196695 289.421229 
L 223.595167 290.156609 
L 221.888677 290.703529 
L 220.093767 291.066799 
L 218.227215 291.252253 
L 216.305814 291.266606 
L 214.346174 291.117291 
L 211.370443 290.604067 
L 208.397718 289.7693 
L 205.477131 288.642616 
L 202.653739 287.253689 
L 199.968158 285.631421 
L 197.456443 283.803262 
L 195.150153 281.794699 
L 193.076565 279.628883 
L 191.259 277.326378 
L 189.717214 274.905029 
L 188.46783 272.379908 
L 187.52478 269.763329 
L 186.899739 267.064915 
L 186.66463 265.224081 
L 186.577783 263.351513 
L 186.641478 261.448203 
L 186.857789 259.514684 
L 187.228615 257.551051 
L 188.078377 254.548305 
L 189.285173 251.474149 
L 190.853995 248.323816 
L 192.789464 245.090694 
L 195.095846 241.766426 
L 197.777002 238.341006 
L 200.836268 234.802879 
L 204.276244 231.139048 
L 208.098502 227.335196 
L 213.789493 222.018674 
L 220.154844 216.386291 
L 229.037068 208.838711 
L 263.422643 180.047702 
L 272.986103 171.602621 
L 280.230654 164.936502 
L 287.438092 158.00073 
L 294.504315 150.819838 
L 299.079142 145.913718 
L 303.501361 140.928244 
L 307.731106 135.879834 
L 311.72695 130.787568 
L 315.446481 125.673153 
L 318.847003 120.560821 
L 321.886337 115.477123 
L 324.523719 110.450633 
L 326.720766 105.511552 
L 328.442482 100.69122 
L 329.115324 98.335547 
L 329.658245 96.021531 
L 330.068258 93.75314 
L 330.342765 91.534295 
L 330.479569 89.368844 
L 330.476918 87.260543 
L 330.333499 85.213033 
L 330.048467 83.229817 
L 329.621454 81.31424 
L 329.052569 79.469469 
L 328.342413 77.698475 
L 327.492074 76.004012 
L 326.503115 74.388607 
L 325.377582 72.854539 
L 324.117981 71.403834 
L 322.727259 70.03825 
L 321.208801 68.759273 
L 319.566392 67.568107 
L 317.804195 66.465679 
L 315.926733 65.452628 
L 313.938847 64.529314 
L 311.845669 63.695822 
L 309.652588 62.951962 
L 304.989362 61.731076 
L 299.996111 60.860062 
L 294.721667 60.328658 
L 289.215644 60.123397 
L 283.527442 60.228118 
L 277.705317 60.624515 
L 271.795617 61.292675 
L 265.842131 62.211614 
L 259.885601 63.35976 
L 253.963376 64.715402 
L 248.109187 66.257079 
L 242.353062 67.963906 
L 236.721323 69.815843 
L 231.236685 71.793899 
L 225.918408 73.880288 
L 220.78251 76.058532 
L 213.448345 79.465448 
L 206.585861 83.000214 
L 200.215962 86.624591 
L 196.248876 89.074733 
L 196.248876 89.074733 
" clip-path="url(#paf7fc9064e)" style="fill: none; stroke: #ef0000; stroke-width: 3.8; stroke-linecap: square"/>
   </g>
   <g id="line2d_4">
    <path d="M 199.945483 87.66567 
L 194.264457 91.481607 
L 189.111119 95.307665 
L 184.477607 99.127707 
L 180.352419 102.930144 
L 176.721548 106.707324 
L 174.567932 109.209173 
L 172.622244 111.697289 
L 170.879538 114.171633 
L 169.33484 116.632616 
L 167.983199 119.081048 
L 166.81973 121.518096 
L 165.83964 123.945242 
L 165.038257 126.364248 
L 164.411041 128.777124 
L 163.953595 131.186099 
L 163.661669 133.593593 
L 163.531156 136.002197 
L 163.558088 138.414648 
L 163.738624 140.833809 
L 164.289304 144.481665 
L 165.165019 148.161727 
L 166.35387 151.884715 
L 167.844064 155.661536 
L 169.623676 159.503135 
L 171.68038 163.420338 
L 174.001147 167.423669 
L 177.481787 172.912619 
L 181.369427 178.593904 
L 186.734744 185.992788 
L 195.002589 196.943788 
L 206.384006 212.025258 
L 212.736696 220.815899 
L 217.656727 227.991453 
L 222.305531 235.22704 
L 225.540728 240.646483 
L 228.503264 246.01744 
L 231.143545 251.297643 
L 233.415467 256.441885 
L 235.278189 261.403187 
L 236.275614 264.585671 
L 237.067978 267.651963 
L 237.649186 270.588686 
L 238.015169 273.383116 
L 238.164 276.02338 
L 238.09596 278.498647 
L 237.813561 280.799303 
L 237.321523 282.917092 
L 236.626706 284.845233 
L 235.737996 286.578501 
L 234.666149 288.113279 
L 233.423601 289.447562 
L 232.024255 290.580939 
L 230.483238 291.514532 
L 228.816654 292.250914 
L 227.041326 292.793992 
L 225.174549 293.148881 
L 223.233842 293.321749 
L 221.236723 293.319664 
L 219.200504 293.150431 
L 217.142102 292.822425 
L 214.048539 292.052023 
L 210.994022 290.97484 
L 208.026686 289.621779 
L 205.190075 288.023121 
L 202.522956 286.207785 
L 200.059341 284.202752 
L 197.828687 282.03264 
L 195.856213 279.719424 
L 194.16331 277.28227 
L 192.767985 274.737465 
L 191.685334 272.098426 
L 191.143608 270.292063 
L 190.749745 268.451053 
L 190.506635 266.577342 
L 190.416878 264.672371 
L 190.482826 262.737094 
L 190.70663 260.771996 
L 191.090268 258.77711 
L 191.635588 256.752035 
L 192.76049 253.655909 
L 194.258565 250.485456 
L 196.134979 247.234286 
L 198.394603 243.894172 
L 201.041992 240.455153 
L 204.08128 236.905623 
L 207.516001 233.232432 
L 211.348814 229.421 
L 217.080673 224.096447 
L 223.520778 218.457159 
L 232.550505 210.89961 
L 249.133239 197.430699 
L 263.060995 186.051882 
L 272.876225 177.804162 
L 282.945708 169.016609 
L 290.549397 162.080465 
L 298.088085 154.866992 
L 305.447087 147.405149 
L 310.190131 142.31262 
L 314.754942 137.143663 
L 319.098188 131.916822 
L 323.175081 126.653473 
L 326.940069 121.377759 
L 330.347644 116.116428 
L 333.353268 110.898567 
L 335.914393 105.755232 
L 337.991539 100.718969 
L 338.837391 98.251428 
L 339.549391 95.823238 
L 340.123949 93.438616 
L 340.557865 91.101749 
L 340.848362 88.816771 
L 340.993097 86.587738 
L 340.990204 84.418606 
L 340.838295 82.313205 
L 340.536485 80.275216 
L 340.084407 78.30815 
L 339.482206 76.415325 
L 338.730562 74.599846 
L 337.830677 72.864584 
L 336.784266 71.212167 
L 335.593566 69.644956 
L 334.261304 68.165038 
L 332.790686 66.774215 
L 331.185381 65.473993 
L 329.44949 64.265582 
L 327.587517 63.149891 
L 325.604345 62.127525 
L 323.505198 61.198792 
L 321.295604 60.363704 
L 318.981363 59.621986 
L 316.568507 58.973084 
L 311.472007 57.950186 
L 306.057545 57.285463 
L 300.377843 56.965768 
L 294.485764 56.974898 
L 288.433277 57.294164 
L 282.270554 57.902992 
L 276.045226 58.779487 
L 269.801789 59.900989 
L 263.581185 61.244558 
L 257.420516 62.787415 
L 251.352911 64.50731 
L 245.407497 66.38283 
L 239.60948 68.393633 
L 233.980301 70.520631 
L 228.537846 72.746108 
L 223.296709 75.053796 
L 215.837055 78.637522 
L 208.883728 82.329572 
L 202.453171 86.093413 
L 200.427279 87.358645 
L 200.427279 87.358645 
" clip-path="url(#paf7fc9064e)" style="fill: none; stroke: #ff3f00; stroke-width: 4.2; stroke-linecap: square"/>
   </g>
   <g id="line2d_5">
    <path d="M 204.257672 85.894931 
L 198.372035 89.823632 
L 193.037743 93.755148 
L 188.245307 97.673621 
L 183.981634 101.567857 
L 180.231217 105.43067 
L 178.007728 107.986435 
L 175.999578 110.526116 
L 174.201463 113.049835 
L 172.608076 115.558167 
L 171.214159 118.052089 
L 170.014547 120.53293 
L 169.00419 123.002335 
L 168.178183 125.462229 
L 167.531777 127.914779 
L 167.060386 130.362371 
L 166.759593 132.807582 
L 166.625141 135.253154 
L 166.65293 137.701977 
L 166.839005 140.157064 
L 167.179536 142.621539 
L 167.971825 146.342896 
L 169.091065 150.103738 
L 170.525258 153.915421 
L 172.262388 157.789387 
L 174.290154 161.737014 
L 176.595665 165.769441 
L 180.077657 171.29631 
L 183.992192 177.016215 
L 189.428599 184.467593 
L 196.615189 193.886666 
L 212.263524 214.291783 
L 218.828029 223.313567 
L 223.882367 230.666767 
L 227.476817 236.216993 
L 230.842981 241.759027 
L 233.926965 247.253108 
L 236.676699 252.655431 
L 239.043715 257.919095 
L 240.985017 262.995338 
L 242.024738 266.251064 
L 242.850799 269.387273 
L 243.456763 272.390086 
L 243.838328 275.246305 
L 243.993443 277.943631 
L 243.922387 280.470858 
L 243.627786 282.818059 
L 243.114596 284.976732 
L 242.390021 286.939921 
L 241.463396 288.702306 
L 240.34602 290.260242 
L 239.050953 291.611775 
L 237.592787 292.756612 
L 235.987388 293.696057 
L 234.251636 294.432922 
L 232.403152 294.971401 
L 230.46003 295.316935 
L 228.440582 295.476052 
L 226.363102 295.456199 
L 224.245642 295.265574 
L 222.105829 294.912951 
L 218.891258 294.100437 
L 215.718845 292.976066 
L 212.638484 291.571948 
L 209.695216 289.919461 
L 206.92905 288.048491 
L 204.375012 285.986842 
L 202.063372 283.75982 
L 200.019992 281.389946 
L 198.266766 278.896804 
L 196.822101 276.296979 
L 196.038135 274.511333 
L 195.402144 272.687687 
L 194.917628 270.828789 
L 194.587715 268.936839 
L 194.415217 267.01351 
L 194.402678 265.059964 
L 194.552421 263.076872 
L 194.86659 261.064433 
L 195.347185 259.022388 
L 195.996095 256.95004 
L 196.815118 254.846271 
L 198.366393 251.628256 
L 200.309941 248.32922 
L 202.651167 244.940477 
L 205.395224 241.451541 
L 208.546915 237.850219 
L 212.110503 234.122705 
L 216.089431 230.253692 
L 222.044364 224.845889 
L 228.741643 219.11398 
L 238.143638 211.4238 
L 255.445647 197.691203 
L 270.013278 186.060944 
L 280.299119 177.614784 
L 288.209739 170.90769 
L 296.197657 163.885966 
L 304.163683 156.563874 
L 311.992114 148.966949 
L 317.070197 143.768088 
L 321.98621 138.478813 
L 326.695003 133.11701 
L 331.149468 127.703594 
L 335.301204 122.262488 
L 339.10133 116.820509 
L 342.501424 111.407141 
L 345.454594 106.054195 
L 347.916624 100.795356 
L 348.95067 98.212126 
L 349.847169 95.665607 
L 350.60188 93.160266 
L 351.210951 90.700559 
L 351.670946 88.290914 
L 351.97889 85.935696 
L 352.132277 83.63919 
L 352.129117 81.405567 
L 351.96794 79.238864 
L 351.647818 77.142956 
L 351.168386 75.121532 
L 350.529836 73.178072 
L 349.732933 71.315827 
L 348.779009 69.537796 
L 347.669954 67.84671 
L 346.408213 66.245018 
L 344.996768 64.734869 
L 343.439108 63.31811 
L 341.739226 61.996267 
L 339.901572 60.77055 
L 337.93103 59.641845 
L 335.832885 58.610714 
L 333.612786 57.677404 
L 331.2767 56.841844 
L 328.830881 56.103662 
L 326.281826 55.462187 
L 320.900941 54.465285 
L 315.189245 53.840399 
L 309.203156 53.57303 
L 302.999073 53.645511 
L 296.632267 54.037637 
L 290.155924 54.727303 
L 283.62036 55.69112 
L 277.072402 56.904995 
L 270.554973 58.344647 
L 264.106803 59.986071 
L 257.762317 61.805913 
L 251.551631 63.781784 
L 245.500662 65.892502 
L 239.631314 68.118261 
L 233.961725 70.440752 
L 228.506559 72.843229 
L 220.750224 76.564168 
L 213.528745 80.386706 
L 206.857391 84.273807 
L 204.757068 85.578478 
L 204.757068 85.578478 
" clip-path="url(#paf7fc9064e)" style="fill: none; stroke: #ff9000; stroke-width: 4.6; stroke-linecap: square"/>
   </g>
   <g id="line2d_6">
    <path d="M 142.078955 111.185723 
L 138.778832 113.643698 
L 135.749768 116.180018 
L 132.996936 118.778548 
L 130.522375 121.425957 
L 128.325571 124.111521 
L 126.40397 126.826904 
L 124.753426 129.565926 
L 123.368578 132.324339 
L 122.243168 135.099604 
L 121.370283 137.890683 
L 120.742557 140.697839 
L 120.352309 143.522461 
L 120.191646 146.366893 
L 120.252517 149.234275 
L 120.526735 152.128408 
L 121.005973 155.053603 
L 121.681719 158.014558 
L 122.873225 162.026694 
L 124.376795 166.123199 
L 126.169265 170.315838 
L 128.225476 174.615525 
L 131.124086 180.154713 
L 135.001915 187.059245 
L 150.051263 213.275326 
L 153.412536 219.79585 
L 155.872781 224.991884 
L 158.063541 230.114225 
L 159.927567 235.104789 
L 161.080382 238.723711 
L 162.002806 242.206117 
L 162.68063 245.524793 
L 163.103963 248.653307 
L 163.267694 251.566762 
L 163.171803 254.242532 
L 162.821486 256.660922 
L 162.227074 258.805728 
L 161.403763 260.664656 
L 160.371152 262.229576 
L 159.152641 263.496604 
L 157.774695 264.466012 
L 156.266058 265.141979 
L 154.656925 265.532212 
L 152.978147 265.647458 
L 151.26049 265.500954 
L 149.533978 265.107833 
L 147.82735 264.484539 
L 146.167629 263.648261 
L 144.579811 262.61641 
L 143.08667 261.406159 
L 141.708657 260.034058 
L 140.463897 258.515709 
L 139.368241 256.86552 
L 138.435388 255.096523 
L 137.677031 253.220246 
L 137.10303 251.246647 
L 136.721599 249.184073 
L 136.539487 247.03927 
L 136.562153 244.817408 
L 136.793922 242.522128 
L 137.238123 240.155609 
L 137.897203 237.718638 
L 138.772805 235.210693 
L 139.86582 232.630024 
L 141.661545 229.070877 
L 143.842271 225.367552 
L 146.403645 221.507572 
L 149.338206 217.47613 
L 153.513577 212.170402 
L 159.222759 205.36735 
L 169.02101 194.152378 
L 178.616134 183.067288 
L 184.794572 175.597609 
L 189.697799 169.342357 
L 194.449582 162.870758 
L 197.841183 157.902254 
L 201.02378 152.863547 
L 203.939553 147.786128 
L 206.529813 142.707053 
L 208.047184 139.340746 
L 209.377672 136.006035 
L 210.505687 132.717325 
L 211.416831 129.489605 
L 212.098202 126.338258 
L 212.538695 123.278833 
L 212.729281 120.32681 
L 212.663253 117.497344 
L 212.336431 114.805 
L 211.747312 112.263502 
L 210.897168 109.885477 
L 209.790074 107.682234 
L 208.432866 105.663565 
L 206.835038 103.837581 
L 205.00857 102.210591 
L 202.967703 100.787029 
L 200.728657 99.569423 
L 198.309323 98.558414 
L 195.728916 97.752821 
L 193.007626 97.149737 
L 190.166255 96.74467 
L 187.225875 96.531705 
L 184.207502 96.503687 
L 181.131792 96.652421 
L 178.01878 96.968865 
L 174.887655 97.443344 
L 170.196399 98.429154 
L 165.561152 99.712607 
L 161.03146 101.258507 
L 156.649898 103.032596 
L 152.452085 105.002369 
L 148.466965 107.13767 
L 144.717284 109.411095 
L 142.356969 110.991257 
L 142.356969 110.991257 
" clip-path="url(#paf7fc9064e)" style="fill: none; stroke: #e6e6e6; stroke-opacity: 0.05; stroke-linecap: square"/>
   </g>
   <g id="line2d_7">
    <path d="M 144.556698 110.190841 
L 141.168633 112.700962 
L 138.060428 115.287581 
L 135.236983 117.934445 
L 132.700012 120.628183 
L 130.448648 123.358094 
L 128.479975 126.115916 
L 126.789485 128.895584 
L 125.371472 131.692995 
L 124.219345 134.505778 
L 123.325889 137.33308 
L 122.683455 140.175364 
L 122.284107 143.034224 
L 122.119723 145.912217 
L 122.182044 148.812705 
L 122.462701 151.739705 
L 122.953196 154.697753 
L 123.644869 157.691769 
L 124.528824 160.726922 
L 125.990552 164.846921 
L 127.754608 169.061841 
L 129.796028 173.383368 
L 132.695751 178.950667 
L 136.604607 185.893017 
L 143.828527 198.112631 
L 149.827597 208.402302 
L 154.164293 216.310814 
L 157.502945 222.930442 
L 159.903929 228.178857 
L 161.998162 233.324528 
L 163.729405 238.305315 
L 164.760434 241.893326 
L 165.544026 245.323718 
L 166.068355 248.569027 
L 166.326408 251.603124 
L 166.316361 254.401981 
L 166.041777 256.944392 
L 165.511594 259.212585 
L 164.739903 261.192704 
L 163.74553 262.875126 
L 162.9701 263.828578 
L 162.113525 264.646815 
L 160.694709 265.621631 
L 159.141697 266.297682 
L 157.485659 266.683069 
L 155.758411 266.788998 
L 153.991651 266.6292 
L 152.216283 266.219329 
L 150.461851 265.576344 
L 148.756108 264.717932 
L 147.124695 263.661973 
L 145.590943 262.42607 
L 144.175785 261.027151 
L 142.897749 259.481148 
L 141.773023 257.802744 
L 140.815587 256.005192 
L 140.037363 254.100194 
L 139.448405 252.097824 
L 139.057088 250.006507 
L 138.870299 247.83302 
L 138.893621 245.582524 
L 139.131494 243.258619 
L 139.587359 240.863404 
L 140.263772 238.397556 
L 141.162488 235.860415 
L 142.284518 233.250065 
L 143.630143 230.563431 
L 145.771211 226.855298 
L 148.305504 222.991681 
L 151.226676 218.957639 
L 155.406513 213.649548 
L 160.144913 208.013083 
L 167.62798 199.502355 
L 182.189052 183.02483 
L 188.574374 175.427939 
L 193.646277 169.060724 
L 198.56532 162.468615 
L 202.078587 157.404763 
L 205.377081 152.267235 
L 208.400502 147.088488 
L 211.087563 141.906778 
L 212.662148 138.472019 
L 214.04311 135.069378 
L 215.214136 131.713766 
L 216.160162 128.4207 
L 216.86769 125.206104 
L 217.325109 122.086074 
L 217.522988 119.076626 
L 217.454338 116.193427 
L 217.114827 113.451524 
L 216.502937 110.865069 
L 215.620069 108.447065 
L 214.470563 106.209124 
L 213.061661 104.161269 
L 211.403381 102.311757 
L 209.508348 100.666964 
L 207.391536 99.231305 
L 205.069982 98.007212 
L 202.562444 96.995153 
L 199.889044 96.193707 
L 197.070893 95.59967 
L 194.12971 95.208205 
L 191.08746 95.013016 
L 187.966015 95.00654 
L 184.786837 95.180156 
L 181.570706 95.5244 
L 178.337487 96.029167 
L 173.496316 97.064182 
L 168.716529 98.400209 
L 164.049028 100.000871 
L 159.537394 101.830879 
L 155.21794 103.856856 
L 151.120035 106.047936 
L 147.266623 108.376156 
L 144.842202 109.99209 
L 144.842202 109.99209 
" clip-path="url(#paf7fc9064e)" style="fill: none; stroke: #e6e6e6; stroke-opacity: 0.052444; stroke-width: 1.133333; stroke-linecap: square"/>
   </g>
   <g id="line2d_8">
    <path d="M 147.101663 109.167512 
L 143.621958 111.73176 
L 140.431347 114.370515 
L 137.534424 117.067411 
L 134.93255 119.809044 
L 132.624478 122.584747 
L 130.606902 125.386341 
L 128.874932 128.207889 
L 127.422491 131.045442 
L 126.24264 133.896809 
L 125.327841 136.761333 
L 124.670149 139.639685 
L 124.261363 142.533677 
L 124.09312 145.44609 
L 124.156946 148.380512 
L 124.444281 151.34119 
L 124.946455 154.332894 
L 125.65465 157.360774 
L 126.559826 160.430233 
L 128.056915 164.597053 
L 129.864101 168.860523 
L 131.95606 173.232848 
L 134.928735 178.867548 
L 138.938095 185.897616 
L 146.354316 198.28265 
L 152.519557 208.722555 
L 156.25702 215.407933 
L 159.756186 222.134853 
L 162.297283 227.484884 
L 164.538827 232.74658 
L 166.420901 237.857452 
L 167.564827 241.551615 
L 168.458974 245.094703 
L 169.089512 248.458252 
L 169.447428 251.614911 
L 169.528982 254.539253 
L 169.335978 257.208532 
L 168.875823 259.603366 
L 168.161368 261.708275 
L 167.552442 262.944766 
L 166.844818 264.045121 
L 166.045747 265.008023 
L 165.163182 265.833038 
L 164.205661 266.520591 
L 162.648656 267.297102 
L 160.975151 267.774631 
L 159.217858 267.963872 
L 157.409584 267.878294 
L 155.582504 267.533513 
L 153.767541 266.946664 
L 151.993874 266.13578 
L 150.288575 265.119234 
L 148.67637 263.915228 
L 147.179521 262.541367 
L 145.817795 261.014304 
L 144.608519 259.349465 
L 143.566701 257.560843 
L 142.705182 255.660858 
L 142.034826 253.660273 
L 141.564723 251.568155 
L 141.302385 249.391873 
L 141.253943 247.137125 
L 141.424322 244.807989 
L 141.8174 242.406985 
L 142.436132 239.935152 
L 143.282652 237.392128 
L 144.358339 234.776243 
L 145.663847 232.084603 
L 147.761781 228.370824 
L 150.265695 224.502832 
L 153.170357 220.465597 
L 156.467031 216.241899 
L 161.118605 210.671419 
L 167.42622 203.510207 
L 188.516126 179.941732 
L 193.804073 173.655331 
L 199.026721 167.109892 
L 202.828987 162.05157 
L 206.470728 156.888557 
L 209.891702 151.64818 
L 213.028966 146.363903 
L 215.818468 141.075252 
L 217.453631 137.569149 
L 218.88805 134.095703 
L 220.104645 130.670356 
L 221.087635 127.309188 
L 221.822887 124.028695 
L 222.298247 120.845551 
L 222.503856 117.776339 
L 222.432424 114.83727 
L 222.079459 112.043896 
L 221.443431 109.410824 
L 220.525878 106.951448 
L 219.331433 104.677702 
L 217.86777 102.599843 
L 216.145479 100.726283 
L 214.177872 99.063459 
L 211.980714 97.61576 
L 209.571913 96.385509 
L 206.97116 95.372984 
L 204.199543 94.576505 
L 201.279155 93.992546 
L 198.232689 93.615902 
L 195.083062 93.439866 
L 191.85305 93.456443 
L 188.564967 93.656563 
L 185.24038 94.030306 
L 181.899863 94.567123 
L 176.901281 95.654046 
L 171.969897 97.045369 
L 167.158015 98.703481 
L 162.51025 100.59202 
L 158.063618 102.676706 
L 153.847907 104.925942 
L 149.886247 107.311194 
L 147.394975 108.96431 
L 147.394975 108.96431 
" clip-path="url(#paf7fc9064e)" style="fill: none; stroke: #e6e6e6; stroke-opacity: 0.059778; stroke-width: 1.266667; stroke-linecap: square"/>
   </g>
   <g id="line2d_9">
    <path d="M 149.716724 108.114522 
L 146.141472 110.734985 
L 142.865006 113.427807 
L 139.891583 116.176517 
L 137.22218 118.967689 
L 134.855139 121.790696 
L 132.786735 124.637459 
L 131.011669 127.502175 
L 129.523472 130.381064 
L 128.314837 133.272126 
L 127.377883 136.174911 
L 126.704358 139.090309 
L 126.285779 142.020363 
L 126.113531 144.968084 
L 126.17892 147.9373 
L 126.473184 150.932499 
L 126.987479 153.95869 
L 127.712823 157.021266 
L 128.640029 160.12587 
L 130.173837 164.340666 
L 132.025826 168.653898 
L 134.170308 173.078312 
L 137.21884 178.782174 
L 141.332793 185.90234 
L 148.949396 198.457578 
L 155.288058 209.052361 
L 159.133675 215.841892 
L 162.736161 222.676927 
L 165.353537 228.114847 
L 167.66323 233.464141 
L 169.155957 237.379556 
L 170.417128 241.180358 
L 171.426711 244.837066 
L 172.168801 248.32025 
L 172.632294 251.601363 
L 172.811419 254.653574 
L 172.706091 257.452581 
L 172.322046 259.977347 
L 171.670748 262.21071 
L 171.0962 263.531198 
L 170.416503 264.713695 
L 169.63877 265.756445 
L 168.770885 266.658613 
L 167.821399 267.420264 
L 166.799407 268.042322 
L 165.151376 268.717684 
L 163.394957 269.092007 
L 161.564042 269.177483 
L 159.692327 268.988917 
L 157.812592 268.543067 
L 155.956108 267.857999 
L 154.152176 266.952462 
L 152.427804 265.845331 
L 150.807508 264.555116 
L 149.31323 263.09955 
L 147.964349 261.495254 
L 146.777761 259.75749 
L 145.768027 257.899974 
L 144.947555 255.93476 
L 144.326796 253.872173 
L 143.914462 251.720789 
L 143.717733 249.487444 
L 143.742452 247.177279 
L 143.993303 244.793793 
L 144.473966 242.338916 
L 145.187236 239.81309 
L 146.135119 237.215354 
L 147.318884 234.543436 
L 148.739088 231.793849 
L 151.000059 227.998805 
L 153.678272 224.043717 
L 156.768037 219.912225 
L 160.259916 215.585855 
L 165.168053 209.873481 
L 171.797621 202.519795 
L 191.058425 181.398669 
L 197.896901 173.444088 
L 203.307171 166.775589 
L 207.248876 161.618787 
L 211.026417 156.352573 
L 214.57696 151.005067 
L 217.834748 145.610797 
L 220.732777 140.210625 
L 222.43215 136.630102 
L 223.923253 133.08279 
L 225.188179 129.584697 
L 226.210385 126.152494 
L 226.975054 122.803288 
L 227.469453 119.554364 
L 227.683265 116.422905 
L 227.608879 113.425699 
L 227.241632 110.57883 
L 226.579985 107.897388 
L 225.625629 105.395179 
L 224.383511 103.084468 
L 222.861777 100.975762 
L 221.071628 99.077626 
L 219.02712 97.396558 
L 216.744867 95.936912 
L 214.243713 94.700886 
L 211.544345 93.688551 
L 208.668889 92.897943 
L 205.640481 92.325193 
L 202.482857 91.964695 
L 199.21994 91.809309 
L 195.875469 91.850573 
L 192.472658 92.078943 
L 189.033902 92.484017 
L 185.580523 93.054772 
L 180.416527 94.196498 
L 175.326021 95.646025 
L 170.362762 97.364451 
L 165.572425 99.314296 
L 160.992737 101.460349 
L 156.6539 103.770259 
L 152.579207 106.214908 
L 150.018182 107.906694 
L 150.018182 107.906694 
" clip-path="url(#paf7fc9064e)" style="fill: none; stroke: #e6e6e6; stroke-opacity: 0.072; stroke-width: 1.4; stroke-linecap: square"/>
   </g>
   <g id="line2d_10">
    <path d="M 152.404922 107.030589 
L 148.72999 109.709466 
L 145.364025 112.458389 
L 142.310914 115.260788 
L 139.571212 118.103221 
L 137.142816 120.975119 
L 135.021557 123.86851 
L 133.201696 126.777741 
L 131.676347 129.699212 
L 130.437812 132.631126 
L 129.477852 135.573254 
L 128.787887 138.526718 
L 128.359141 141.493797 
L 128.182737 144.477751 
L 128.249748 147.482654 
L 128.551208 150.513245 
L 129.078087 153.574784 
L 129.82124 156.672918 
L 130.771326 159.813541 
L 132.343281 164.077508 
L 134.241834 168.441758 
L 136.440926 172.9196 
L 139.568379 178.694452 
L 143.791234 185.907197 
L 150.806348 197.326019 
L 158.136522 209.392145 
L 162.095212 216.28924 
L 165.805812 223.236031 
L 168.503061 228.764856 
L 170.884156 234.204795 
L 172.423481 238.186992 
L 173.724291 242.052675 
L 174.765776 245.77155 
L 175.531396 249.313382 
L 176.009596 252.64885 
L 176.194359 255.750418 
L 176.085572 258.593179 
L 175.689171 261.155609 
L 175.27075 262.69933 
L 174.734594 264.10649 
L 174.086673 265.373921 
L 173.333915 266.499403 
L 172.484107 267.48167 
L 171.545776 268.320395 
L 170.528074 269.016159 
L 169.440648 269.570406 
L 167.700761 270.141549 
L 165.861288 270.410096 
L 163.957248 270.389733 
L 162.023159 270.096573 
L 160.092335 269.548476 
L 158.196323 268.764387 
L 156.364482 267.763712 
L 154.623697 266.565769 
L 152.998225 265.189312 
L 151.509653 263.652142 
L 150.176937 261.970794 
L 149.016527 260.160314 
L 148.04253 258.234097 
L 147.266913 256.20379 
L 146.69972 254.079244 
L 146.349298 251.868515 
L 146.222506 249.577881 
L 146.324917 247.211899 
L 146.660993 244.773469 
L 147.234236 242.263911 
L 148.047302 239.683051 
L 149.102087 237.02931 
L 150.399769 234.2998 
L 151.940819 231.490418 
L 154.373533 227.611168 
L 157.235333 223.565458 
L 160.520051 219.335559 
L 164.217494 214.901705 
L 169.39571 209.040459 
L 177.598059 200.165381 
L 193.646117 182.888374 
L 200.720171 174.881509 
L 206.35516 168.152246 
L 210.486406 162.936415 
L 214.470692 157.597962 
L 218.24379 152.163644 
L 221.737829 146.666867 
L 224.882891 141.147724 
L 226.751132 137.478573 
L 228.412947 133.835221 
L 229.848978 130.233852 
L 231.041099 126.69145 
L 231.972804 123.225573 
L 232.629597 119.8541 
L 232.999354 116.594948 
L 233.072659 113.465764 
L 232.843085 110.483614 
L 232.307419 107.664658 
L 231.46581 105.02385 
L 230.321835 102.57465 
L 228.882477 100.328774 
L 227.158022 98.295982 
L 225.161864 96.483926 
L 222.910236 94.898044 
L 220.421877 93.541518 
L 217.717641 92.415289 
L 214.820082 91.518127 
L 211.752998 90.846754 
L 208.540995 90.396009 
L 205.209044 90.159041 
L 201.782069 90.127539 
L 198.284577 90.291969 
L 194.74032 90.641817 
L 191.172016 91.165838 
L 187.601119 91.852287 
L 182.283262 93.160184 
L 177.065071 94.765755 
L 171.998979 96.629173 
L 167.128935 98.712538 
L 162.490707 100.980634 
L 158.112428 103.401443 
L 154.015324 105.946435 
L 152.714881 106.817948 
L 152.714881 106.817948 
" clip-path="url(#paf7fc9064e)" style="fill: none; stroke: #e6e6e6; stroke-opacity: 0.089111; stroke-width: 1.533333; stroke-linecap: square"/>
   </g>
   <g id="line2d_11">
    <path d="M 155.169475 105.91435 
L 151.390489 108.653966 
L 147.931173 111.461132 
L 144.795004 114.31919 
L 141.982079 117.214695 
L 139.489816 120.137147 
L 137.313564 123.078695 
L 135.447118 126.033848 
L 133.883146 128.999203 
L 132.613539 131.973178 
L 131.629676 134.955776 
L 130.922634 137.948364 
L 130.483328 140.953473 
L 130.302608 143.974619 
L 130.371306 147.016135 
L 130.680239 150.083023 
L 131.22019 153.180805 
L 131.981845 156.31539 
L 132.955706 159.492935 
L 134.131986 162.719705 
L 135.997503 167.10938 
L 138.178787 171.611785 
L 140.647444 176.239759 
L 144.088747 182.21734 
L 149.439806 190.96791 
L 161.068577 209.742361 
L 165.145564 216.750597 
L 168.231698 222.400602 
L 171.082802 228.035995 
L 173.626524 233.598166 
L 175.291209 237.682203 
L 176.718145 241.658013 
L 177.884405 245.494617 
L 178.771215 249.160815 
L 179.364742 252.626062 
L 179.656735 255.861364 
L 179.644976 258.840177 
L 179.333517 261.539219 
L 178.964209 263.173435 
L 178.470694 264.670002 
L 177.858638 266.025235 
L 177.134742 267.236421 
L 176.306652 268.301831 
L 175.382839 269.220718 
L 174.372482 269.993286 
L 173.285334 270.620653 
L 172.131591 271.104796 
L 170.299144 271.568706 
L 168.376622 271.72898 
L 166.400105 271.600783 
L 164.404859 271.201507 
L 162.42466 270.550067 
L 160.491261 269.666228 
L 158.63401 268.569994 
L 156.879616 267.28106 
L 155.252029 265.818362 
L 153.77244 264.199709 
L 152.459364 262.441494 
L 151.328782 260.558498 
L 150.394341 258.563749 
L 149.667571 256.468447 
L 149.158116 254.281938 
L 148.873967 252.011724 
L 148.821679 249.6635 
L 149.006576 247.241216 
L 149.432919 244.747151 
L 150.104053 242.181994 
L 151.022518 239.544937 
L 152.190118 236.833763 
L 153.607961 234.044948 
L 155.276446 231.173754 
L 157.890241 227.207105 
L 160.945602 223.066959 
L 164.435859 218.734172 
L 169.392976 213.015034 
L 176.165811 205.649948 
L 202.123045 178.005355 
L 207.995531 171.291505 
L 213.77866 164.294539 
L 217.973898 158.885737 
L 221.975089 153.366344 
L 225.712385 147.768502 
L 229.11307 142.131376 
L 231.156819 138.373913 
L 232.996721 134.634505 
L 234.611951 130.929463 
L 235.982768 127.276032 
L 237.090926 123.692181 
L 237.92009 120.196351 
L 238.456238 116.807167 
L 238.688035 113.543127 
L 238.607162 110.422273 
L 238.208586 107.461859 
L 237.490755 104.678014 
L 236.455712 102.085438 
L 235.109122 99.697112 
L 233.460189 97.524065 
L 231.521498 95.57518 
L 229.308767 93.857062 
L 226.840512 92.373966 
L 224.137665 91.12779 
L 221.223132 90.118127 
L 218.121332 89.342371 
L 214.857723 88.795875 
L 211.458328 88.472144 
L 207.949286 88.36307 
L 204.356443 88.459169 
L 200.704975 88.749847 
L 197.019075 89.223653 
L 193.32168 89.868534 
L 189.634275 90.672069 
L 184.164896 92.147369 
L 178.822088 93.909349 
L 173.656698 95.917445 
L 168.710748 98.13351 
L 164.017879 100.522487 
L 159.604041 103.052828 
L 155.488312 105.696703 
L 155.488312 105.696703 
" clip-path="url(#paf7fc9064e)" style="fill: none; stroke: #e6e6e6; stroke-opacity: 0.111111; stroke-width: 1.666667; stroke-linecap: square"/>
   </g>
   <g id="line2d_12">
    <path d="M 158.013793 104.764367 
L 154.126119 107.567173 
L 150.569376 110.434842 
L 147.346588 113.350633 
L 144.457352 116.301114 
L 141.898569 119.275865 
L 139.665071 122.267171 
L 137.750152 125.269721 
L 136.14601 128.280319 
L 134.844095 131.297616 
L 133.835385 134.32186 
L 133.110595 137.354675 
L 132.660317 140.398858 
L 132.475113 143.458192 
L 132.545563 146.537284 
L 132.862263 149.641408 
L 133.4158 152.77636 
L 134.196686 155.948323 
L 135.195265 159.163727 
L 136.401599 162.42911 
L 138.315236 166.871904 
L 140.553499 171.429868 
L 143.087575 176.116437 
L 146.621731 182.172373 
L 152.121017 191.0438 
L 164.088075 210.103487 
L 168.288907 217.226621 
L 171.470595 222.972036 
L 174.411356 228.704629 
L 177.036183 234.36424 
L 178.754507 238.520423 
L 180.227771 242.566641 
L 181.432125 246.471028 
L 182.348026 250.201493 
L 182.961063 253.726624 
L 183.262626 257.016629 
L 183.250382 260.044256 
L 182.928519 262.78565 
L 182.546947 264.444292 
L 182.037102 265.962135 
L 181.404865 267.335443 
L 180.657194 268.561484 
L 179.802024 269.638548 
L 178.848144 270.565935 
L 177.805074 271.343928 
L 176.682923 271.973752 
L 175.492253 272.457512 
L 174.243942 272.798122 
L 172.287596 273.048771 
L 170.263839 273.000549 
L 168.209448 272.670829 
L 166.159833 272.078751 
L 164.148445 271.244508 
L 162.206327 270.188693 
L 160.361837 268.931719 
L 158.640491 267.493318 
L 157.064936 265.892146 
L 155.655012 264.145463 
L 154.427896 262.268906 
L 153.398292 260.276331 
L 152.578659 258.179727 
L 151.979452 255.989172 
L 151.609363 253.712837 
L 151.47556 251.357025 
L 151.583902 248.926224 
L 151.939128 246.423183 
L 152.545017 243.848995 
L 153.404517 241.203186 
L 154.519833 238.483812 
L 155.892475 235.687553 
L 157.523265 232.80981 
L 159.412299 229.844813 
L 162.331355 225.743802 
L 165.703729 221.456659 
L 169.521165 216.962247 
L 174.898023 211.01794 
L 182.181442 203.345703 
L 203.478221 181.168198 
L 209.565435 174.482508 
L 215.630775 167.487465 
L 220.084623 162.057659 
L 224.385727 156.493758 
L 228.464006 150.824094 
L 232.245127 145.084281 
L 234.562887 141.239679 
L 236.691524 137.397324 
L 238.608435 133.572993 
L 240.291725 129.783631 
L 241.720632 126.04716 
L 242.875961 122.382261 
L 243.740532 118.808105 
L 244.299603 115.344053 
L 244.541275 112.009322 
L 244.456836 108.822644 
L 244.04105 105.801907 
L 243.292366 102.963809 
L 242.21303 100.323531 
L 240.809112 97.89444 
L 239.090418 95.687842 
L 237.070311 93.71278 
L 234.765444 91.975907 
L 232.195397 90.481409 
L 229.382268 89.231006 
L 226.350201 88.224014 
L 223.124889 87.457463 
L 219.733073 86.926267 
L 216.20204 86.623437 
L 212.559149 86.540325 
L 208.831398 86.666883 
L 205.045035 86.99194 
L 201.225227 87.503471 
L 197.395788 88.188862 
L 193.578965 89.035155 
L 187.921798 90.577706 
L 182.400353 92.409316 
L 177.066767 94.488087 
L 171.963914 96.774763 
L 167.12592 99.233396 
L 162.578911 101.831753 
L 158.341908 104.541506 
L 158.341908 104.541506 
" clip-path="url(#paf7fc9064e)" style="fill: none; stroke: #e6e6e6; stroke-opacity: 0.138; stroke-width: 1.8; stroke-linecap: square"/>
   </g>
   <g id="line2d_13">
    <path d="M 160.941491 103.579112 
L 156.940216 106.447702 
L 153.28173 109.378255 
L 149.968555 112.353965 
L 146.999745 115.361423 
L 144.37164 118.390305 
L 142.078517 121.43305 
L 140.113137 124.48454 
L 138.467191 127.541804 
L 137.131666 130.603738 
L 136.097116 133.670853 
L 135.353872 136.745046 
L 134.892187 139.829389 
L 134.702322 142.92795 
L 134.774594 146.045617 
L 135.09937 149.187951 
L 135.667034 152.361036 
L 136.467919 155.571338 
L 137.492207 158.825574 
L 138.72981 162.130565 
L 140.693529 166.627862 
L 142.991123 171.242857 
L 145.593354 175.989614 
L 149.224314 182.126105 
L 154.037322 189.807374 
L 168.079112 211.915147 
L 172.369011 219.177053 
L 175.59651 225.023803 
L 178.557333 230.84506 
L 181.174334 236.576852 
L 182.867759 240.774174 
L 184.299745 244.848887 
L 185.446855 248.768018 
L 186.290416 252.498667 
L 186.817345 256.008968 
L 187.020785 259.269065 
L 186.900528 262.252055 
L 186.643507 264.075175 
L 186.249037 265.759011 
L 185.722018 267.29876 
L 185.068562 268.690633 
L 184.295897 269.931883 
L 183.412264 271.020819 
L 182.42679 271.956794 
L 181.349352 272.740175 
L 180.190436 273.372299 
L 178.960992 273.85541 
L 177.672287 274.19258 
L 175.653168 274.433227 
L 173.565152 274.369767 
L 171.446233 274.020254 
L 169.332947 273.404513 
L 167.259759 272.543407 
L 165.258614 271.458165 
L 163.35865 270.169778 
L 161.58605 268.698502 
L 159.964019 267.063442 
L 158.512864 265.282239 
L 157.250141 263.370841 
L 156.190866 261.343345 
L 155.347755 259.211916 
L 154.731474 256.986746 
L 154.3509 254.676067 
L 154.213361 252.286188 
L 154.324866 249.821558 
L 154.690303 247.284842 
L 155.313604 244.677009 
L 156.197875 241.997425 
L 157.345492 239.243948 
L 158.758152 236.413028 
L 160.436874 233.4998 
L 162.381966 230.498196 
L 165.388787 226.346052 
L 168.86429 222.004313 
L 172.800719 217.450862 
L 178.349246 211.424863 
L 185.872815 203.639994 
L 207.922204 181.085561 
L 214.238379 174.271392 
L 220.537992 167.135238 
L 225.167771 161.591591 
L 229.64191 155.907546 
L 233.887106 150.112282 
L 237.825457 144.242602 
L 240.240769 140.309805 
L 242.459783 136.378587 
L 244.458721 132.465341 
L 246.214537 128.587682 
L 247.705366 124.764257 
L 248.910993 121.014503 
L 249.813325 117.358371 
L 250.396848 113.816003 
L 250.649052 110.407386 
L 250.560806 107.151982 
L 250.126659 104.068356 
L 249.345062 101.173807 
L 248.218487 98.484027 
L 246.753448 96.012786 
L 244.960405 93.771676 
L 242.853566 91.769907 
L 240.450596 90.014167 
L 237.772226 88.508563 
L 234.841816 87.254612 
L 231.684838 86.251328 
L 228.328359 85.49534 
L 224.800496 84.981088 
L 221.129888 84.701049 
L 217.345196 84.645995 
L 213.474645 84.805275 
L 209.54562 85.167102 
L 205.584322 85.71884 
L 201.615482 86.447281 
L 197.662155 87.338898 
L 193.745556 88.380084 
L 187.981174 90.1929 
L 182.399142 92.26794 
L 177.046383 94.563748 
L 171.960455 97.042224 
L 167.170305 99.669097 
L 162.697198 102.41416 
L 161.279308 103.350818 
L 161.279308 103.350818 
" clip-path="url(#paf7fc9064e)" style="fill: none; stroke: #e6e6e6; stroke-opacity: 0.169778; stroke-width: 1.933333; stroke-linecap: square"/>
   </g>
   <g id="line2d_14">
    <path d="M 163.956407 102.356962 
L 159.836319 105.294079 
L 156.071513 108.290035 
L 152.663962 111.327967 
L 149.612126 114.394508 
L 146.911738 117.479448 
L 144.556478 120.575394 
L 142.538536 123.67744 
L 140.849066 126.782858 
L 139.478559 129.890806 
L 138.417121 133.002073 
L 137.654679 136.118841 
L 137.181128 139.244476 
L 136.986416 142.383341 
L 137.060584 145.540623 
L 137.393761 148.722181 
L 137.976121 151.934397 
L 138.797815 155.184037 
L 139.848859 158.478114 
L 141.119012 161.823746 
L 143.134882 166.376982 
L 145.494288 171.050542 
L 148.167566 175.859142 
L 151.899507 182.078478 
L 156.849697 189.868636 
L 171.313421 212.323734 
L 175.738675 219.709862 
L 179.069996 225.659584 
L 182.12756 231.585482 
L 184.831252 237.421805 
L 186.581361 241.696217 
L 188.061631 245.845846 
L 189.247641 249.836736 
L 190.119919 253.635009 
L 190.664807 257.207866 
L 190.87513 260.5246 
L 190.829062 262.579666 
L 190.635724 264.501292 
L 190.298193 266.283115 
L 189.820906 267.919735 
L 189.209597 269.406778 
L 188.471215 270.74094 
L 187.613816 271.920006 
L 186.646441 272.942848 
L 185.578977 273.809407 
L 184.422015 274.520648 
L 183.186694 275.078502 
L 181.884553 275.485798 
L 180.527378 275.746167 
L 178.414432 275.870917 
L 176.24428 275.692153 
L 174.055755 275.229325 
L 171.885906 274.503401 
L 169.769422 273.536128 
L 167.738236 272.349362 
L 165.821283 270.964488 
L 164.044404 269.401936 
L 162.430373 267.680799 
L 160.999006 265.818544 
L 159.767357 263.83081 
L 158.749948 261.731284 
L 157.959028 259.531632 
L 157.404847 257.241487 
L 157.095917 254.868475 
L 157.039267 252.418264 
L 157.240667 249.894639 
L 157.704824 247.299588 
L 158.435547 244.633391 
L 159.435865 241.894718 
L 160.708113 239.080728 
L 162.253967 236.187166 
L 164.074438 233.208467 
L 166.169814 230.137858 
L 169.390191 225.887006 
L 173.094028 221.437405 
L 177.27297 216.765372 
L 183.142916 210.573856 
L 191.074136 202.5619 
L 210.906404 182.682023 
L 217.447417 175.821245 
L 224.010895 168.61942 
L 228.864282 163.011363 
L 233.583369 157.247875 
L 238.09341 151.356436 
L 242.314145 145.372413 
L 244.925846 141.35276 
L 247.346315 137.325961 
L 249.550305 133.308362 
L 251.513092 129.317671 
L 253.210943 125.372792 
L 254.621612 121.493589 
L 255.724836 117.700617 
L 256.502843 114.014801 
L 256.940822 110.45708 
L 257.027352 107.048028 
L 256.754766 103.807457 
L 256.119432 100.754025 
L 255.121932 97.90486 
L 253.767132 95.275211 
L 252.064138 92.878152 
L 250.026135 90.724337 
L 247.670113 88.821827 
L 245.016503 87.175987 
L 242.088718 85.789461 
L 238.912643 84.66222 
L 235.516077 83.791675 
L 231.928159 83.172861 
L 228.178802 82.798653 
L 224.298137 82.66004 
L 220.316016 82.74641 
L 216.26155 83.045854 
L 212.162723 83.545468 
L 208.046065 84.231654 
L 203.936399 85.090398 
L 199.856658 86.107523 
L 193.838344 87.899383 
L 187.995763 89.969609 
L 182.38027 92.274416 
L 177.033188 94.77341 
L 171.986567 97.430142 
L 167.264144 100.212394 
L 164.304377 102.123004 
L 164.304377 102.123004 
" clip-path="url(#paf7fc9064e)" style="fill: none; stroke: #e6e6e6; stroke-opacity: 0.206444; stroke-width: 2.066667; stroke-linecap: square"/>
   </g>
   <g id="line2d_15">
    <path d="M 167.062618 101.096197 
L 162.818179 104.104746 
L 158.942201 107.168764 
L 155.436046 110.271349 
L 152.297529 113.399192 
L 149.521726 116.542214 
L 147.101675 119.693212 
L 145.028952 122.84751 
L 143.294141 126.00264 
L 141.887204 129.158041 
L 140.797772 132.314795 
L 140.015347 135.475389 
L 139.529448 138.643495 
L 139.329692 141.823788 
L 139.405835 145.021766 
L 139.747755 148.2436 
L 140.345413 151.495985 
L 141.188769 154.785999 
L 142.267673 158.120966 
L 143.571726 161.508312 
L 145.090121 164.955417 
L 147.428251 169.656857 
L 150.097753 174.493077 
L 153.850315 180.748587 
L 158.863898 188.588577 
L 175.579834 214.239634 
L 180.098697 221.773342 
L 183.476721 227.830123 
L 186.552553 233.84886 
L 188.61138 238.296231 
L 190.421139 242.650675 
L 191.952241 246.878085 
L 193.179216 250.943473 
L 194.081743 254.811932 
L 194.645549 258.449682 
L 194.863122 261.825121 
L 194.815373 263.915503 
L 194.615206 265.869163 
L 194.26582 267.679587 
L 193.771832 269.341259 
L 193.139208 270.849733 
L 192.37518 272.20167 
L 191.488128 273.394859 
L 190.487453 274.428219 
L 189.383435 275.301769 
L 188.187076 276.016588 
L 186.909943 276.574752 
L 185.56401 276.979254 
L 184.161497 277.233918 
L 181.978584 277.345097 
L 179.737354 277.147406 
L 177.477952 276.661051 
L 175.238623 275.907754 
L 173.05513 274.909988 
L 170.960341 273.690283 
L 168.983998 272.270635 
L 167.152621 270.672013 
L 165.489549 268.913971 
L 164.015063 267.014359 
L 162.746596 264.989122 
L 161.698977 262.852175 
L 160.884708 260.615347 
L 160.314253 258.288369 
L 159.996309 255.878904 
L 159.938074 253.392606 
L 160.145479 250.833194 
L 160.623397 248.202547 
L 161.375809 245.500792 
L 162.40593 242.726408 
L 163.716299 239.876324 
L 165.308814 236.94602 
L 167.184727 233.929624 
L 169.344582 230.820026 
L 172.665453 226.51452 
L 176.486975 222.006299 
L 180.801409 217.270564 
L 186.866542 210.990408 
L 195.070543 202.855421 
L 215.630611 182.625402 
L 222.426022 175.629046 
L 229.251947 168.277403 
L 234.304028 162.547783 
L 239.220085 156.655326 
L 243.921847 150.628315 
L 248.325084 144.503304 
L 251.051202 140.387425 
L 253.578725 136.263276 
L 255.881039 132.147858 
L 257.932065 128.059614 
L 259.706752 124.018239 
L 261.18161 120.044445 
L 262.335244 116.159665 
L 263.148892 112.385719 
L 263.606934 108.744433 
L 263.697348 105.257236 
L 263.412101 101.944743 
L 262.747445 98.826338 
L 261.704106 95.919775 
L 260.287355 93.240814 
L 258.506959 90.802908 
L 256.376995 88.616948 
L 253.915556 86.691091 
L 251.144352 85.03065 
L 248.088216 83.638083 
L 244.77455 82.513046 
L 241.232734 81.652525 
L 237.4935 81.051034 
L 233.58834 80.700852 
L 229.54891 80.592319 
L 225.406507 80.714136 
L 221.191584 81.053693 
L 216.933348 81.597388 
L 212.659421 82.330939 
L 208.395582 83.239677 
L 204.165583 84.30881 
L 199.991026 85.523663 
L 193.874973 87.587889 
L 187.982995 89.901537 
L 182.360551 92.42177 
L 177.043107 95.109809 
L 172.057134 97.93128 
L 167.421219 100.856329 
L 167.421219 100.856329 
" clip-path="url(#paf7fc9064e)" style="fill: none; stroke: #e6e6e6; stroke-opacity: 0.248; stroke-width: 2.2; stroke-linecap: square"/>
   </g>
   <g id="line2d_16">
    <path d="M 170.264458 99.794985 
L 165.889782 102.878043 
L 161.897477 106.012938 
L 158.288236 109.182744 
L 155.059166 112.374227 
L 152.204633 115.577462 
L 149.716983 118.785457 
L 147.587135 121.993786 
L 145.805061 125.20026 
L 144.360166 128.40462 
L 143.241574 131.608259 
L 142.438338 134.813983 
L 141.939581 138.025789 
L 141.734575 141.248679 
L 141.812773 144.488477 
L 142.163799 147.751683 
L 142.777388 151.045316 
L 143.643308 154.376781 
L 144.751236 157.753727 
L 146.090617 161.183903 
L 147.650491 164.675009 
L 150.053226 169.437485 
L 152.797577 174.338116 
L 156.657328 180.67993 
L 161.81772 188.633544 
L 179.052972 214.701762 
L 183.720109 222.370102 
L 187.211163 228.538266 
L 190.391538 234.669882 
L 192.521201 239.201678 
L 194.393791 243.639266 
L 195.978454 247.947489 
L 197.248607 252.090271 
L 198.183023 256.031625 
L 198.766777 259.736734 
L 198.991995 263.173062 
L 198.942472 265.300036 
L 198.735102 267.286854 
L 198.373215 269.126842 
L 197.861616 270.814367 
L 197.206521 272.344904 
L 196.415458 273.71508 
L 195.497154 274.922694 
L 194.461393 275.966713 
L 193.318868 276.847243 
L 192.081018 277.565485 
L 190.759864 278.123667 
L 189.367838 278.524961 
L 187.917622 278.773389 
L 185.661124 278.870019 
L 183.345178 278.652235 
L 181.011308 278.141042 
L 178.699019 277.358957 
L 176.445195 276.329209 
L 174.283684 275.075038 
L 172.245068 273.619075 
L 170.356573 271.982853 
L 168.642123 270.186402 
L 167.12248 268.24797 
L 165.815466 266.183814 
L 164.736226 264.008089 
L 163.897526 261.732788 
L 163.310044 259.367738 
L 162.982671 256.92064 
L 162.922777 254.397128 
L 163.136466 251.800853 
L 163.628782 249.133573 
L 164.403889 246.395258 
L 165.465203 243.584183 
L 166.815482 240.697037 
L 168.456864 237.729018 
L 170.390862 234.673939 
L 172.618302 231.524331 
L 175.139199 228.271556 
L 178.955031 223.757171 
L 183.284833 219.016692 
L 189.402174 212.731183 
L 197.723974 204.586987 
L 222.293083 180.817783 
L 229.381042 173.585901 
L 236.472776 165.989243 
L 241.698999 160.072943 
L 246.761068 153.994667 
L 251.57462 147.786376 
L 254.601205 143.595053 
L 257.44954 139.378189 
L 260.091484 135.151827 
L 262.498949 130.933671 
L 264.644386 126.742942 
L 266.501322 122.600187 
L 268.044915 118.527021 
L 269.252545 114.545821 
L 270.104377 110.679362 
L 270.583916 106.950419 
L 270.678491 103.38134 
L 270.379672 99.993595 
L 269.683593 96.807343 
L 269.18667 95.295611 
L 268.591143 93.841002 
L 267.897877 92.445484 
L 267.108041 91.110871 
L 266.223092 89.838815 
L 265.244775 88.630799 
L 263.0164 86.411924 
L 260.442211 84.462489 
L 257.545311 82.787741 
L 254.352074 81.389923 
L 250.89155 80.268342 
L 247.194822 79.419515 
L 243.294346 78.837387 
L 239.22331 78.513592 
L 235.015008 78.437765 
L 230.702282 78.59787 
L 226.317017 78.980546 
L 221.889717 79.571442 
L 217.449163 80.355549 
L 213.022139 81.317505 
L 208.633256 82.441867 
L 204.30483 83.713361 
L 197.9686 85.864025 
L 191.870408 88.264501 
L 186.056571 90.870669 
L 180.562951 93.642751 
L 175.416047 96.545633 
L 170.634198 99.548946 
L 170.634198 99.548946 
" clip-path="url(#paf7fc9064e)" style="fill: none; stroke: #e6e6e6; stroke-opacity: 0.294444; stroke-width: 2.333333; stroke-linecap: square"/>
   </g>
   <g id="line2d_17">
    <path d="M 173.566538 98.451376 
L 169.055362 101.612211 
L 164.941255 104.820961 
L 161.224169 108.0607 
L 157.900439 111.318291 
L 154.963664 114.583986 
L 152.405442 117.851022 
L 150.215988 121.11525 
L 148.384622 124.374781 
L 146.900153 127.629675 
L 145.751169 130.881658 
L 144.926249 134.133875 
L 144.414096 137.390665 
L 144.20362 140.65737 
L 144.283962 143.94016 
L 144.644474 147.245876 
L 145.274664 150.581879 
L 146.1641 153.955915 
L 147.302283 157.375972 
L 148.6785 160.850136 
L 150.281638 164.386445 
L 152.751788 169.211652 
L 155.574291 174.178524 
L 159.546043 180.609179 
L 164.859997 188.679917 
L 182.639862 215.179588 
L 187.462885 222.987573 
L 191.072884 229.271375 
L 194.363355 235.520263 
L 196.567664 240.139807 
L 198.506494 244.663833 
L 200.147645 249.056078 
L 201.463353 253.27932 
L 202.431421 257.296433 
L 203.036228 261.071514 
L 203.233222 263.437083 
L 203.264419 265.670992 
L 203.130899 267.764948 
L 202.835339 269.711599 
L 202.381984 271.504637 
L 201.776588 273.138874 
L 201.026328 274.610302 
L 200.13969 275.916121 
L 199.126334 277.054749 
L 197.996945 278.025801 
L 196.76306 278.830051 
L 195.436904 279.469369 
L 194.031208 279.946644 
L 192.559036 280.265689 
L 191.03362 280.431133 
L 188.674587 280.403138 
L 186.269476 280.062053 
L 183.860628 279.430323 
L 181.488006 278.531611 
L 179.188645 277.390004 
L 176.996296 276.029317 
L 174.941251 274.472506 
L 173.050317 272.741197 
L 171.34691 270.855322 
L 169.851247 268.832864 
L 168.580602 266.689686 
L 167.549599 264.439443 
L 166.770524 262.093548 
L 166.253642 259.661191 
L 166.007499 257.149389 
L 166.039194 254.563065 
L 166.354635 251.905135 
L 166.95874 249.176611 
L 167.855614 246.3767 
L 169.048665 243.502912 
L 170.540686 240.551161 
L 172.33388 237.515864 
L 174.429833 234.390048 
L 176.82943 231.165452 
L 179.532711 227.832646 
L 183.607541 223.202348 
L 188.214031 218.333752 
L 194.700665 211.86829 
L 203.49523 203.475204 
L 225.639115 182.505271 
L 232.990821 175.220599 
L 240.39204 167.549398 
L 245.880591 161.559844 
L 251.230104 155.39107 
L 256.354503 149.073071 
L 259.599972 144.797103 
L 262.675216 140.485933 
L 265.55069 136.155348 
L 268.196635 131.822938 
L 270.583572 127.507981 
L 272.682846 123.231262 
L 274.467218 119.01484 
L 275.91148 114.881745 
L 276.99308 110.855622 
L 277.692726 106.960325 
L 277.994947 103.219473 
L 277.888581 99.655985 
L 277.367169 96.291603 
L 276.950159 94.690438 
L 276.429233 93.146437 
L 275.805007 91.66179 
L 275.078419 90.238532 
L 274.250726 88.878533 
L 273.323495 87.583492 
L 272.298596 86.354929 
L 271.178197 85.194174 
L 269.964743 84.102366 
L 267.269776 82.129168 
L 264.238316 80.440497 
L 260.898416 79.038349 
L 257.280912 77.921642 
L 253.418735 77.086377 
L 249.346204 76.525876 
L 245.098333 76.231072 
L 240.710175 76.190837 
L 236.216229 76.392342 
L 231.649907 76.821415 
L 227.043095 77.46291 
L 222.425797 78.301039 
L 217.825861 79.319704 
L 213.268796 80.502776 
L 208.777661 81.834348 
L 202.208891 84.076468 
L 195.893222 86.568562 
L 189.877816 89.265182 
L 184.198897 92.125523 
L 178.882937 95.11372 
L 173.947961 98.19889 
L 173.947961 98.19889 
" clip-path="url(#paf7fc9064e)" style="fill: none; stroke: #e6e6e6; stroke-opacity: 0.345778; stroke-width: 2.466667; stroke-linecap: square"/>
   </g>
   <g id="line2d_18">
    <path d="M 176.973775 97.063296 
L 172.319428 100.305373 
L 168.077691 103.591137 
L 164.247703 106.903679 
L 160.824957 110.229984 
L 157.802215 113.560504 
L 155.170272 116.888735 
L 152.918587 120.210824 
L 151.035781 123.525208 
L 149.510029 126.832288 
L 148.329352 130.134144 
L 147.481822 133.434278 
L 146.955705 136.737389 
L 146.739528 140.049181 
L 146.822105 143.376183 
L 147.192508 146.725595 
L 147.840006 150.105135 
L 148.753963 153.522906 
L 149.923703 156.98725 
L 151.338351 160.50661 
L 152.986643 164.089372 
L 155.527183 168.979072 
L 158.431338 174.014094 
L 161.664829 179.210389 
L 166.109663 185.95152 
L 173.932932 197.33342 
L 183.253928 210.969377 
L 188.373284 218.841972 
L 192.292825 225.22715 
L 195.954805 231.629396 
L 198.47518 236.401587 
L 200.758221 241.1124 
L 202.766951 245.726354 
L 204.467737 250.206021 
L 205.831551 254.512973 
L 206.835166 258.608881 
L 207.462216 262.456695 
L 207.666429 264.866865 
L 207.698704 267.141942 
L 207.560162 269.273397 
L 207.25359 271.253681 
L 206.783413 273.076335 
L 206.155635 274.736066 
L 205.377741 276.228808 
L 204.458583 277.551752 
L 203.408233 278.703354 
L 202.237826 279.683308 
L 200.959382 280.492511 
L 199.585626 281.13299 
L 198.129802 281.607824 
L 196.605492 281.921039 
L 195.026439 282.077502 
L 192.585231 282.030675 
L 190.097305 281.665111 
L 187.606489 281.004145 
L 185.154084 280.072305 
L 182.778304 278.894499 
L 180.513921 277.495292 
L 178.392088 275.898307 
L 176.440327 274.12575 
L 174.682644 272.198038 
L 173.139734 270.133547 
L 171.829256 267.948449 
L 170.766146 265.65662 
L 169.962948 263.26962 
L 169.430147 260.796712 
L 169.176484 258.244928 
L 169.209245 255.619142 
L 169.534524 252.92217 
L 170.157437 250.154876 
L 171.082302 247.316272 
L 172.312764 244.403631 
L 173.851881 241.412585 
L 175.702147 238.337228 
L 177.865467 235.170222 
L 180.343071 231.902899 
L 183.135362 228.525378 
L 187.346636 223.831499 
L 192.110674 218.893597 
L 198.825117 212.331235 
L 207.939697 203.802692 
L 230.946405 182.441478 
L 238.602681 175.003335 
L 246.319666 167.161501 
L 252.048313 161.032791 
L 257.636706 154.715785 
L 262.994439 148.241391 
L 266.389968 143.857292 
L 269.609032 139.435513 
L 272.620418 134.992489 
L 275.392648 130.54656 
L 277.89451 126.117851 
L 280.095637 121.728087 
L 281.96715 117.400336 
L 283.482314 113.158695 
L 284.61721 109.027906 
L 285.351394 105.032926 
L 285.668489 101.198452 
L 285.556722 97.548426 
L 285.337699 95.79973 
L 285.009339 94.105525 
L 284.571626 92.468369 
L 284.024897 90.890681 
L 283.369824 89.374729 
L 282.607424 87.922619 
L 281.739055 86.536283 
L 280.766402 85.217467 
L 279.691475 83.967729 
L 278.516596 82.788426 
L 277.244384 81.68071 
L 275.877738 80.64553 
L 272.874068 78.79551 
L 269.533748 77.241744 
L 265.888202 75.984314 
L 261.971382 75.020148 
L 257.819019 74.343247 
L 253.46786 73.944971 
L 248.95496 73.814382 
L 244.316999 73.938611 
L 239.589702 74.303247 
L 234.807322 74.89272 
L 230.002228 75.690679 
L 225.204582 76.680337 
L 220.442112 77.844788 
L 215.739969 79.167288 
L 211.120657 80.631495 
L 204.389746 83.059258 
L 197.945546 85.720769 
L 191.832099 88.570809 
L 186.082407 91.569249 
L 180.719781 94.681217 
L 177.367457 96.804068 
L 177.367457 96.804068 
" clip-path="url(#paf7fc9064e)" style="fill: none; stroke: #e6e6e6; stroke-opacity: 0.402; stroke-width: 2.6; stroke-linecap: square"/>
   </g>
   <g id="line2d_19">
    <path d="M 180.491407 95.628528 
L 175.686776 98.955536 
L 171.311208 102.321663 
L 167.362941 105.710045 
L 163.836549 109.107818 
L 160.723887 112.50566 
L 158.014884 115.897354 
L 155.698186 119.279368 
L 153.761666 122.650491 
L 152.192823 126.011489 
L 150.979073 129.364818 
L 150.107958 132.714357 
L 149.567276 136.065187 
L 149.345154 139.423392 
L 149.430063 142.795878 
L 149.810783 146.19022 
L 150.476337 149.614513 
L 151.415879 153.077231 
L 152.618553 156.587088 
L 154.073321 160.152897 
L 155.768766 163.783413 
L 158.38285 168.739444 
L 161.372368 173.844607 
L 164.702528 179.115659 
L 169.283049 185.957852 
L 177.353034 197.521762 
L 186.981146 211.394774 
L 192.275276 219.412959 
L 196.331549 225.920301 
L 200.123563 232.448133 
L 202.734713 237.315555 
L 205.100878 242.121369 
L 207.183442 246.828954 
L 208.947247 251.399651 
L 210.361915 255.79376 
L 211.403117 259.971683 
L 211.880972 262.617873 
L 212.181921 265.140175 
L 212.304516 267.528516 
L 212.249042 269.773652 
L 212.017532 271.867302 
L 211.613756 273.802267 
L 211.043165 275.572529 
L 210.312816 277.173319 
L 209.431254 278.601166 
L 208.408376 279.85391 
L 207.255267 280.930695 
L 205.984023 281.831935 
L 204.607563 282.559253 
L 203.139435 283.115398 
L 201.593622 283.504152 
L 199.984353 283.730218 
L 198.325928 283.799096 
L 195.777119 283.621339 
L 193.196352 283.126905 
L 190.628204 282.340557 
L 188.114351 281.287935 
L 185.693071 279.994742 
L 183.398946 278.486049 
L 181.262761 276.785721 
L 179.311546 274.915972 
L 177.568744 272.897036 
L 176.054463 270.746944 
L 174.785788 268.481395 
L 173.777121 266.113692 
L 173.040532 263.654748 
L 172.586107 261.113128 
L 172.422268 258.49512 
L 172.556073 255.804831 
L 172.993464 253.044288 
L 173.739489 250.213554 
L 174.798468 247.310827 
L 176.174107 244.332555 
L 177.86957 241.273538 
L 179.887491 238.127026 
L 182.229919 234.884829 
L 184.898217 231.537416 
L 187.892874 228.074035 
L 192.392126 223.255203 
L 197.464565 218.178513 
L 204.591761 211.420255 
L 214.2364 202.619399 
L 234.50622 184.207125 
L 242.445089 176.716481 
L 250.495492 168.799637 
L 256.508173 162.596507 
L 262.409216 156.186847 
L 268.10668 149.599294 
L 271.742429 145.127374 
L 275.211383 140.607304 
L 278.480864 136.055171 
L 281.517623 131.489121 
L 284.288366 126.929264 
L 286.760348 122.39751 
L 288.902031 117.917342 
L 290.683791 113.513506 
L 292.078635 109.211642 
L 293.062923 105.037843 
L 293.617045 101.018175 
L 293.726037 97.178155 
L 293.610332 95.333203 
L 293.380094 93.54221 
L 293.034969 91.80797 
L 292.574959 90.133148 
L 292.00044 88.520259 
L 291.312153 86.971657 
L 290.511199 85.489523 
L 289.599047 84.075849 
L 288.577515 82.732436 
L 287.448763 81.460877 
L 286.215286 80.262558 
L 284.879892 79.138644 
L 283.445688 78.090084 
L 281.916064 77.117604 
L 278.585377 75.402674 
L 274.919711 73.995252 
L 270.953965 72.893335 
L 266.725257 72.091723 
L 262.2721 71.582312 
L 257.633619 71.354432 
L 252.848798 71.395237 
L 247.955816 71.69011 
L 242.991467 72.223079 
L 237.990673 72.97722 
L 232.986112 73.935037 
L 228.007931 75.078816 
L 223.083571 76.390927 
L 218.237668 77.854097 
L 213.492034 79.451633 
L 206.602494 82.065246 
L 200.033847 84.895609 
L 193.826745 87.897973 
L 188.01077 91.033088 
L 182.605939 94.267238 
L 180.897966 95.362247 
L 180.897966 95.362247 
" clip-path="url(#paf7fc9064e)" style="fill: none; stroke: #e6e6e6; stroke-opacity: 0.463111; stroke-width: 2.733333; stroke-linecap: square"/>
   </g>
   <g id="line2d_20">
    <path d="M 184.125029 94.144711 
L 179.162523 97.56057 
L 174.646512 101.010617 
L 170.574242 104.478059 
L 166.939281 107.950213 
L 163.732502 111.418015 
L 160.942895 114.875561 
L 158.558233 118.319673 
L 156.565588 121.749516 
L 154.95174 125.16625 
L 153.70346 128.572727 
L 152.807724 131.97323 
L 152.251841 135.373241 
L 152.023516 138.779243 
L 152.110859 142.198539 
L 152.502348 145.639099 
L 153.18675 149.109409 
L 154.153004 152.618335 
L 155.390069 156.174981 
L 156.886745 159.788547 
L 158.631464 163.468172 
L 160.61205 167.22277 
L 163.597042 172.360119 
L 166.943841 177.664047 
L 171.576045 184.550977 
L 178.732508 194.704421 
L 190.835264 211.835153 
L 196.31349 220.004536 
L 200.513946 226.638892 
L 204.443202 233.297411 
L 207.150231 238.263996 
L 209.604242 243.168774 
L 211.764876 247.973921 
L 213.595345 252.63948 
L 215.063827 257.124408 
L 216.144815 261.387763 
L 216.640963 264.08728 
L 216.953422 266.659592 
L 217.080661 269.094305 
L 217.022966 271.381892 
L 216.782455 273.513833 
L 216.363062 275.482737 
L 215.770484 277.282446 
L 215.012096 278.908106 
L 214.096828 280.356213 
L 213.035018 281.624629 
L 211.838243 282.712571 
L 210.519128 283.620572 
L 209.091149 284.350414 
L 207.568428 284.90505 
L 205.96553 285.288492 
L 204.297265 285.505699 
L 202.578498 285.562445 
L 200.823982 285.465191 
L 198.156748 285.046005 
L 195.488614 284.321451 
L 192.86377 283.317932 
L 190.322968 282.062119 
L 187.903155 280.580187 
L 185.637323 278.897187 
L 183.554514 277.036555 
L 181.679973 275.01974 
L 180.035398 272.865946 
L 178.63925 270.591985 
L 177.507116 268.212196 
L 176.652077 265.738434 
L 176.085074 263.180113 
L 175.815258 260.544275 
L 175.850312 257.835683 
L 176.196731 255.056933 
L 176.86006 252.208559 
L 177.845091 249.289153 
L 179.155999 246.29547 
L 180.796433 243.222535 
L 182.769551 240.06375 
L 185.077987 236.810989 
L 187.723764 233.454703 
L 190.708128 229.984035 
L 195.2142 225.15758 
L 200.319173 220.074911 
L 206.013705 214.70222 
L 213.932869 207.524882 
L 246.374075 178.478947 
L 254.764232 170.490017 
L 261.067743 164.214724 
L 267.290322 157.714552 
L 273.338792 151.015676 
L 277.223748 146.456873 
L 280.952839 141.839128 
L 284.491976 137.178096 
L 287.806174 132.491637 
L 290.86006 127.799757 
L 293.618483 123.124466 
L 296.047185 118.489578 
L 298.11354 113.920421 
L 299.787329 109.443476 
L 301.041519 105.085942 
L 301.853029 100.875244 
L 302.203429 96.838489 
L 302.201379 94.893585 
L 302.079554 93.0019 
L 301.837212 91.166478 
L 301.473993 89.390238 
L 300.989922 87.675957 
L 300.385421 86.026253 
L 299.661301 84.443571 
L 298.818763 82.930169 
L 297.859398 81.488108 
L 296.785168 80.11924 
L 295.598402 78.8252 
L 294.301784 77.607398 
L 292.898332 76.467012 
L 291.391377 75.404991 
L 289.784553 74.422045 
L 288.081764 73.518649 
L 284.405122 71.951254 
L 280.397203 70.702023 
L 276.096467 69.766701 
L 271.543215 69.137833 
L 266.778706 68.805116 
L 261.844347 68.755793 
L 256.780928 68.97509 
L 251.627966 69.446651 
L 246.423145 70.15298 
L 241.201872 71.075855 
L 235.996941 72.196711 
L 230.838302 73.496986 
L 225.752935 74.958421 
L 220.764802 76.563305 
L 215.894882 78.294685 
L 208.850444 81.094122 
L 202.161597 84.092592 
L 195.865338 87.246056 
L 189.987646 90.516338 
L 184.545123 93.871042 
L 184.545123 93.871042 
" clip-path="url(#paf7fc9064e)" style="fill: none; stroke: #e6e6e6; stroke-opacity: 0.529111; stroke-width: 2.866667; stroke-linecap: square"/>
   </g>
  </g>
 </g>
 <defs>
  <clipPath id="paf7fc9064e">
   <rect x="57.6" y="41.472" width="357.12" height="266.112"/>
  </clipPath>
 </defs>
</svg>
